<svg width="24" height="24" viewBox="0 0 24 24" fill="none" xmlns="http://www.w3.org/2000/svg"><path d="M21.2295 8.19231C21.7527 8.02826 22.3274 7.85557 22.9278 7.67425C23.2881 8.78807 23.6397 9.85008 24 10.9725C23.4167 11.1711 22.8592 11.3611 22.2588 11.5683C22.2588 12.4922 22.2502 13.4246 22.2673 14.3485C22.2673 14.4521 22.4217 14.6075 22.5418 14.6507C23.005 14.832 23.4768 14.9702 24 15.1515C23.6397 16.2567 23.2881 17.3359 22.9278 18.4498C22.1044 18.208 21.2895 18.0699 20.7234 17.3532C20.3631 16.8956 19.9085 16.4984 19.4796 16.0926C19.2738 15.9027 19.2051 15.73 19.3081 15.4451C20.792 11.0848 18.0043 6.24961 13.2437 5.39482C9.17799 4.66955 5.03503 7.65699 4.40886 11.7582C4.22016 13.0016 4.2802 14.219 4.68335 15.4105C4.78628 15.7214 4.71766 15.9027 4.49464 16.1099C4.10865 16.4725 3.68835 16.8352 3.37098 17.2496C2.78771 18.0094 1.95568 18.1994 1.07219 18.4411C0.711937 17.3446 0.368835 16.2653 0 15.1429C0.514653 14.9702 0.994996 14.832 1.44103 14.6421C1.57827 14.5816 1.72409 14.3571 1.72409 14.2017C1.74982 13.4505 1.72409 12.708 1.74124 11.9568C1.74982 11.6805 1.72409 11.5338 1.42387 11.456C0.960686 11.3352 0.514653 11.1625 0 10.9812C0.35168 9.88461 0.70336 8.80534 1.06362 7.66562C1.56112 7.82104 2.0243 7.99372 2.49607 8.10597C2.63331 8.1405 2.88206 8.08006 2.95926 7.97645C3.48249 7.25981 3.97999 6.5259 4.52037 5.74019C4.21158 5.29984 3.8599 4.81633 3.49107 4.28964C4.44317 3.5989 5.35239 2.92543 6.3045 2.23469C6.62187 2.6664 6.89636 3.08085 7.21372 3.45212C7.30808 3.56436 7.5654 3.63344 7.71122 3.59027C8.44032 3.38305 9.16083 3.11538 9.88992 2.90816C10.1644 2.83046 10.2588 2.70094 10.2502 2.42465C10.233 1.9584 10.2502 1.50078 10.2502 1H13.6726V2.73548C14.659 3.05494 15.594 3.35714 16.5804 3.67661C16.9064 3.22763 17.258 2.74411 17.644 2.21743C18.5961 2.90816 19.5054 3.58163 20.4575 4.27237C20.1487 4.70408 19.8399 5.09262 19.5911 5.5157C19.5139 5.64521 19.5225 5.92151 19.6169 6.04239C20.1058 6.74176 20.629 7.42386 21.1951 8.18367L21.2295 8.19231Z" fill="white"/><path d="M12.0686 22.9914C10.6876 21.5926 9.38385 20.2802 8.07148 18.9592C6.82773 20.2198 5.63545 21.4372 4.47748 22.6115C3.80843 21.938 3.21658 21.3336 2.65046 20.7637C5.72981 17.664 8.88635 14.4867 11.9828 11.3697C15.0879 14.4953 18.253 17.6813 21.3924 20.8414C20.8778 21.3595 20.2859 21.9639 19.6855 22.5769C18.5104 21.3854 17.3181 20.168 16.1001 18.9246C14.7105 20.332 13.3981 21.6531 12.0772 23L12.0686 22.9914ZM11.9828 20.2975C12.8749 19.3995 13.7584 18.5102 14.5561 17.7072C13.7069 16.8524 12.8063 15.9458 12 15.1342C11.168 15.9717 10.2759 16.8697 9.41816 17.7245C10.2588 18.5706 11.1508 19.4686 11.9743 20.2975H11.9828Z" fill="white"/><path d="M17.8327 14.4262C17.3267 13.9082 16.8292 13.4246 16.366 12.9066C16.263 12.7857 16.2373 12.5785 16.2116 12.4058C15.9199 10.4286 14.2473 8.86578 12.3002 8.77943C10.173 8.68446 8.30307 10.0314 7.89135 12.0518C7.76269 12.6735 7.51394 13.1311 7.06791 13.5369C6.77627 13.7959 6.5361 14.1154 6.25304 14.4349C5.60114 12.9498 6.15868 10.1695 7.95997 8.54631C10.0272 6.68132 13.0893 6.46546 15.4053 8.02826C17.4382 9.39246 18.5018 12.0863 17.8327 14.4176V14.4262Z" fill="white"/></svg>