<svg width="24" height="24" viewBox="0 0 24 24" fill="none" xmlns="http://www.w3.org/2000/svg"><path d="M21.4501 4.28694C20.2877 7.21377 19.1683 10.0201 18.0231 12.8953H23C19.3233 16.5968 15.6466 20.307 11.9785 24C8.31898 20.307 4.65088 16.5968 1 12.9125H5.94247C4.78865 10.0115 3.66928 7.21377 2.50685 4.30416C2.75656 4.37303 2.92877 4.41607 3.10098 4.47633C4.47006 4.93257 5.83914 5.37159 7.19961 5.86227C7.58708 6 7.76791 5.90531 7.98317 5.59541C9.28337 3.74462 10.6094 1.90244 11.9699 0C12.1249 0.197991 12.2454 0.361549 12.3659 0.525108C13.58 2.22095 14.8027 3.91679 15.9996 5.62984C16.2149 5.93113 16.3957 5.98278 16.7401 5.86227C18.2642 5.32855 19.8055 4.83788 21.4587 4.28694H21.4501ZM11.9699 14.5567C13.0892 12.878 14.1569 11.2855 15.2074 9.68436C15.2677 9.59828 15.2591 9.39168 15.1988 9.32281C14.1569 8.22956 13.1065 7.14491 12.0387 6.03443C10.8763 7.19656 9.80861 8.24677 8.76673 9.3142C8.69785 9.38307 8.68924 9.61549 8.74951 9.71019C9.79139 11.3027 10.8591 12.8867 11.9699 14.5567ZM11.9871 16.4849C11.3155 17.1564 10.6352 17.8278 10.0239 18.439C10.6869 19.0933 11.3671 19.7819 11.9785 20.3845C12.607 19.7647 13.2873 19.0933 13.9503 18.439C13.3217 17.8106 12.6501 17.1478 11.9871 16.4935V16.4849Z" fill="white"/></svg>