<svg width="24" height="24" viewBox="0 0 24 24" fill="none" xmlns="http://www.w3.org/2000/svg"><path d="M7.74232 19.0602C8.28037 18.724 8.81842 18.5171 9.17423 18.1292C9.80774 17.4309 10.3458 16.6464 10.8838 15.8706C11.0661 15.612 11.2223 15.4999 11.5434 15.4568C12.4633 15.3361 13.0447 15.612 13.5047 16.4826C13.8952 17.2154 14.5634 17.8275 15.1622 18.4309C15.4226 18.6895 15.8304 18.793 16.2383 18.9999C16.2817 18.7757 16.3078 18.6637 16.3338 18.5516C16.5855 17.3792 17.5574 16.5861 18.8071 16.543C19.9353 16.4999 21.1329 17.3447 21.454 18.3878C21.5581 18.724 21.4973 18.9309 21.1502 19.1119C18.1996 20.7068 15.2664 22.3361 12.3158 23.9309C12.1509 24.0171 11.8558 24.0257 11.6996 23.9395C8.74899 22.3447 5.81575 20.7154 2.86514 19.1206C2.46594 18.905 2.43991 18.6723 2.57008 18.3016C2.9606 17.2326 4.14084 16.4568 5.26902 16.543C6.61415 16.6464 7.46461 17.4482 7.751 19.0602H7.74232Z" fill="white"/><path d="M11.9947 0.0172413C13.4092 1.4224 14.7804 2.76722 16.1255 4.1379C16.2296 4.24997 16.2557 4.52583 16.1949 4.68962C15.7957 5.83617 15.3965 6.98271 14.9453 8.11201C14.763 8.57753 14.7543 8.9396 15.0841 9.33614C15.3358 9.63787 15.492 10.0258 15.761 10.3017C16.4813 11.0603 16.3164 11.9654 16.2991 12.9309C15.4052 12.4913 14.5721 12.0861 13.6696 11.6379C13.4526 12.2241 13.2357 12.7758 13.0534 13.3447C12.9493 13.6723 12.8017 13.8275 12.4112 13.8189C11.1268 13.8016 11.1268 13.8189 10.6842 12.612C10.5714 12.3103 10.4586 12.0172 10.3111 11.6465C9.45193 12.0689 8.61014 12.4741 7.68157 12.9309C7.71628 12.0172 7.46461 11.1465 8.15887 10.4051C8.44526 10.0948 8.61014 9.67235 8.89653 9.35339C9.26101 8.9396 9.2263 8.56029 9.03538 8.07753C8.58411 6.94823 8.18491 5.80169 7.78571 4.65514C7.73364 4.51721 7.72496 4.26721 7.81174 4.18101C9.18291 2.79308 10.5714 1.4224 12.0033 0L11.9947 0.0172413Z" fill="white"/></svg>