<svg width="24" height="24" viewBox="0 0 24 24" fill="none" xmlns="http://www.w3.org/2000/svg"><g clip-path="url(#clip0_5042_66)"><path d="M11.935 15.8492C10.8437 15.8492 9.74371 15.8406 8.6524 15.8492C8.34926 15.8492 8.21069 15.7539 8.12407 15.4591C7.44851 13.3611 6.76428 11.2631 6.08005 9.17377C5.99344 8.90501 6.01076 8.73162 6.27059 8.54957C8.08077 7.25782 9.88228 5.94874 11.6751 4.63098C11.9263 4.44893 12.0995 4.47493 12.3334 4.64832C14.1089 5.95741 15.8931 7.25782 17.686 8.5409C17.9458 8.72295 17.9891 8.89634 17.9025 9.1651C17.2096 11.2718 16.5167 13.3871 15.8411 15.4938C15.7545 15.7712 15.6073 15.8406 15.3388 15.8406C14.2042 15.8319 13.0782 15.8406 11.9436 15.8406L11.935 15.8492ZM11.961 8.99171C10.9736 9.00038 10.1768 9.79797 10.1854 10.7689C10.1854 11.7226 11.0169 12.5462 11.9783 12.5548C12.957 12.5548 13.8058 11.6966 13.7798 10.7256C13.7538 9.73728 12.957 8.98304 11.961 8.99171Z" fill="white"/><path d="M1.2558 10.4482H4.65096C5.15331 12.0173 5.66431 13.5778 6.158 15.147C6.19264 15.251 6.10603 15.4591 6.01076 15.5285C5.19661 16.144 4.36514 16.7422 3.53367 17.349C2.38174 16.5168 1.24713 15.7018 0.129848 14.8609C0.0172534 14.7742 -0.0260523 14.4881 0.0172534 14.3321C0.407004 13.049 0.8314 11.7746 1.2558 10.4482Z" fill="white"/><path d="M22.7181 10.4308C23.1598 11.7833 23.5929 13.0923 23.9913 14.4014C24.0346 14.5315 23.948 14.7916 23.8354 14.8783C22.7354 15.7105 21.6095 16.5081 20.4575 17.349C19.6087 16.7335 18.7513 16.118 17.9112 15.4851C17.8332 15.4244 17.7986 15.225 17.8332 15.121C18.3009 13.6385 18.7686 12.156 19.271 10.6822C19.3056 10.5695 19.5308 10.4482 19.6607 10.4395C20.6654 10.4222 21.6701 10.4308 22.7181 10.4308Z" fill="white"/><path d="M11.9956 23.4957C10.8437 22.6547 9.72638 21.8571 8.62642 21.0162C8.50516 20.9208 8.41855 20.6434 8.46186 20.496C8.70437 19.6551 8.98153 18.8228 9.28467 17.9992C9.33663 17.8519 9.57048 17.6785 9.71772 17.6785C11.2248 17.6525 12.7318 17.6785 14.2388 17.6611C14.5247 17.6611 14.6459 17.7652 14.7239 18.0253C14.975 18.8488 15.2695 19.6551 15.5034 20.4787C15.5467 20.6434 15.4601 20.9382 15.3301 21.0422C14.2475 21.8658 13.1389 22.6634 11.9869 23.4957H11.9956Z" fill="white"/><path d="M10.0555 3.66868C8.71303 4.64832 7.38788 5.61063 6.06272 6.5556C5.96745 6.62495 5.7336 6.64229 5.63833 6.57294C4.85883 6.03543 4.07933 5.48059 3.32581 4.89974C3.23053 4.82171 3.17857 4.57897 3.22187 4.44893C3.60296 3.21787 4.01004 1.99548 4.42577 0.773087C4.46908 0.651715 4.65962 0.513004 4.78954 0.513004C6.09737 0.495665 7.41386 0.495665 8.72169 0.513004C8.86027 0.513004 9.0768 0.669054 9.1201 0.807765C9.44057 1.73539 9.73505 2.68036 10.0468 3.66868H10.0555Z" fill="white"/><path d="M13.9357 3.66001C14.2562 2.66302 14.5506 1.70939 14.8798 0.764418C14.9144 0.651715 15.0876 0.513004 15.2002 0.513004C16.6206 0.495665 18.0324 0.504335 19.4788 0.504335C19.9205 1.8481 20.3623 3.16585 20.778 4.49227C20.8126 4.61364 20.726 4.84772 20.6221 4.92574C19.8946 5.48059 19.1584 6.02676 18.4048 6.53826C18.2836 6.61628 18.0151 6.61628 17.9025 6.53826C16.586 5.60196 15.2868 4.64832 13.9357 3.66868V3.66001Z" fill="white"/></g><defs><clipPath id="clip0_5042_66"><rect width="24" height="24" fill="white"/></clipPath></defs></svg>