<svg width="24" height="24" viewBox="0 0 24 24" fill="none" xmlns="http://www.w3.org/2000/svg">
<g clip-path="url(#clip0_5125_20)">
<path d="M20.4555 13.9603C19.6475 13.9603 17.6767 17.9762 17.6767 17.9762C17.6767 17.9762 15.268 15.0758 14.611 14.8527C13.9541 14.6296 13.2972 14.8527 13.2972 14.8527V13.5297C13.2972 13.5297 14.611 12.6217 14.3921 11.0599C14.1731 9.4982 13.5162 9.2751 13.5162 9.2751V8.38268C13.5162 8.38268 14.611 8.38268 14.611 7.93647C14.611 7.49026 15.084 5.69873 12.9862 5.70319C12.5724 5.70319 12.2768 5.70319 12.0687 5.70319C12.1147 5.70319 11.8738 5.70319 11.8738 5.70319C11.8629 5.70319 11.8519 5.70319 11.841 5.70319C11.83 5.70319 11.8191 5.70319 11.8081 5.70319C11.8081 5.70319 11.5695 5.70319 11.6133 5.70319C11.403 5.70319 11.1096 5.70319 10.6957 5.70319C8.59796 5.70096 9.07095 7.49026 9.07095 7.93647C9.07095 8.38268 10.1658 8.38268 10.1658 8.38268V9.2751C10.1658 9.2751 9.5089 9.4982 9.28992 11.0599C9.07095 12.6217 10.3848 13.5297 10.3848 13.5297V14.8527C10.3848 14.8527 9.72788 14.6296 9.07095 14.8527C8.41402 15.0758 6.00529 17.9762 6.00529 17.9762C6.00529 17.9762 4.03451 13.9603 3.22648 13.9603H0.108269C-0.53114 16.6376 1.84256 16.4144 2.49948 16.4144C3.15641 16.4144 3.15641 17.3069 3.59436 18.6455C4.03232 19.9841 5.12719 22.2152 5.78412 22.4383C6.44105 22.6614 8.41183 19.761 8.41183 19.761C8.41183 19.761 10.8206 23.5538 11.2585 23.7724C11.4863 23.8862 11.6527 23.942 11.7622 23.971V24C11.7622 24 11.7884 24 11.8388 23.9888C11.8892 23.9978 11.9154 24 11.9154 24V23.971C12.0249 23.942 12.1914 23.8862 12.4191 23.7724C12.857 23.5538 15.2658 19.761 15.2658 19.761C15.2658 19.761 17.2366 22.6614 17.8935 22.4383C18.5504 22.2152 19.6453 19.9841 20.0832 18.6455C20.5212 17.3069 20.5212 16.4144 21.1781 16.4144C21.835 16.4144 24.2087 16.6376 23.5693 13.9603H20.4533H20.4555ZM11.6592 20.562L10.5994 19.1229C10.5381 19.0382 10.5403 18.9221 10.6082 18.8441L11.668 17.5679C11.7578 17.4608 11.9198 17.463 12.0074 17.5724L13.0169 18.8485C13.0782 18.9266 13.0826 19.0382 13.0257 19.1207L12.0162 20.5597C11.9286 20.6824 11.7512 20.6847 11.6614 20.5642L11.6592 20.562Z" fill="white"/>
<path d="M23.0022 7.39433C22.3803 6.08693 21.6073 4.87994 20.6175 3.82911C19.6891 2.84076 18.5548 1.85018 17.2606 1.41066C16.1461 1.03138 15.0884 0.46916 13.93 0.223745C13.7767 0.190279 12.0271 -0.0707535 12.0271 0.0184884C12.0271 -0.0707535 10.2753 0.190279 10.1242 0.223745C8.96803 0.46916 7.91038 1.03138 6.7936 1.41066C5.49945 1.85018 4.36735 2.84076 3.4367 3.82911C2.44693 4.88217 1.67395 6.08693 1.05205 7.39433C0.430164 8.70172 -0.215815 10.2434 0.178341 11.7203C0.235275 11.9323 0.320676 12.1442 0.478338 12.2959C0.868115 12.6685 1.80971 12.6752 2.26299 12.4343C2.68124 12.2112 2.99875 11.7047 3.31845 11.3567C3.67101 10.9752 4.01918 10.5847 4.32355 10.1631C4.95639 9.28848 5.33741 8.28451 5.27172 7.18461C5.22573 6.4149 5.31989 5.77459 6.152 5.61395C6.93156 5.46224 7.70673 5.56487 8.46877 5.28599C9.13445 5.04057 9.69065 4.6256 10.1702 4.1013C10.6498 3.57701 11.3155 3.26912 12.0293 3.36729C12.7432 3.26689 13.4089 3.57701 13.8884 4.1013C14.368 4.6256 14.922 5.04057 15.5899 5.28599C16.3519 5.5671 17.1271 5.46447 17.9066 5.61395C18.7387 5.77459 18.8329 6.4149 18.7869 7.18461C18.7212 8.28451 19.1022 9.28848 19.7351 10.1631C20.0416 10.5847 20.3876 10.9752 20.7402 11.3567C21.0599 11.7047 21.3774 12.2112 21.7956 12.4343C22.2489 12.6752 23.1883 12.6685 23.5803 12.2959C23.738 12.1465 23.8255 11.9345 23.8803 11.7203C24.2723 10.2456 23.6285 8.70395 23.0066 7.39433H23.0022Z" fill="white"/>
</g>
<defs>
<clipPath id="clip0_5125_20">
<rect width="24" height="24" fill="white"/>
</clipPath>
</defs>
</svg>
