<svg width="24" height="24" viewBox="0 0 24 24" fill="none" xmlns="http://www.w3.org/2000/svg"><path d="M10.6887 15.3299C9.59603 15.7974 8.55997 15.822 7.52391 15.5267C5.71082 15.0182 4.29433 14.0339 3.72774 12.1063C3.43635 11.1056 3.5011 10.0802 3.77631 9.08773C4.22149 7.49643 4.17292 5.93795 3.67108 4.37126C3.65489 4.30563 3.65489 4.24001 3.6387 4.13338C4.15673 4.23181 4.65857 4.39586 5.16041 4.41227C6.09124 4.44508 7.03017 4.44508 7.961 4.35485C8.98087 4.25642 9.87932 4.61733 10.3407 5.42939C10.4783 5.66726 10.4702 5.83131 10.2759 6.04458C9.45033 6.97967 8.78661 8.0214 8.49522 9.25999C7.98528 11.4255 8.72185 13.23 10.1545 14.8131C10.3002 14.9772 10.4702 15.1166 10.6887 15.3299Z" fill="white"/><path d="M23 9.71933C22.6924 10.0556 22.3687 10.3181 22.1582 10.6544C21.6078 11.5403 21.0655 12.4344 20.6041 13.3695C20.1751 14.2389 19.6328 14.8623 18.621 14.9444C18.2568 14.969 18.0625 14.8705 17.9411 14.485C17.5688 13.3285 17.0022 12.2703 16.1118 11.4255C14.4606 9.85057 12.5018 9.64551 10.3893 10.1541C10.2759 10.1787 10.1626 10.2197 10.0493 10.2525C10.0169 10.2607 9.98455 10.2689 9.87123 10.2853C9.89551 10.0802 9.90361 9.88338 9.95217 9.70292C10.5269 7.53745 12.7204 5.74108 14.9382 5.67546C16.3223 5.63445 17.4798 6.24964 18.443 7.20114C19.5195 8.26748 20.7013 9.11234 22.1744 9.50606C22.4334 9.57168 22.6843 9.6373 22.9919 9.71933H23Z" fill="white"/><path d="M8.53569 23.9918C8.3738 23.4914 8.30905 23.0977 8.13098 22.7614C7.64533 21.8345 7.15158 20.9158 6.58499 20.0382C6.04268 19.2015 5.75129 18.3812 6.25313 17.4215C6.39882 17.1345 6.56071 17.0524 6.89257 17.118C8.12288 17.3723 9.36129 17.4215 10.5754 17.036C12.688 16.3552 13.8293 14.7557 14.4363 12.6887C14.4849 12.5246 14.5173 12.3606 14.5982 12.0735C14.9301 12.418 15.2458 12.6887 15.4724 13.0168C16.557 14.5917 16.8565 16.3224 16.298 18.1516C15.7719 19.8823 14.4444 20.76 12.8256 21.2439C11.5872 21.6131 10.4216 22.0888 9.46652 22.9993C9.15894 23.2864 8.89183 23.6145 8.53569 24V23.9918Z" fill="white"/><path d="M10.7292 3.84629C11.5953 2.89479 12.429 1.97611 13.3194 1C13.8293 2.03352 14.323 3.02603 14.8168 4.01855C14.0559 4.86341 11.9191 4.8306 10.7292 3.85449V3.84629Z" fill="white"/><path d="M2.84547 14.1077C4.15673 14.7065 4.95806 16.3224 4.69904 17.8071C3.48492 17.5282 2.27079 17.2493 1 16.954C1.63944 15.9697 2.23841 15.051 2.85357 14.1077H2.84547Z" fill="white"/><path d="M19.6409 16.0927C20.0132 17.2985 20.3856 18.5043 20.7741 19.7921C19.6328 19.7265 18.5401 19.669 17.4636 19.6034C17.1479 18.3894 18.1759 16.7243 19.6409 16.0927Z" fill="white"/></svg>