<svg width="24" height="24" viewBox="0 0 24 24" fill="none" xmlns="http://www.w3.org/2000/svg">
<g clip-path="url(#clip0_5125_10)">
<path d="M23.9185 12.1089C23.8192 10.044 23.6978 8.40594 23.0357 7.53465C22.1596 6.38238 22.3736 5.35644 22.1529 5.13861C21.8043 4.79446 21.0495 5.35644 20.6081 5.79208C20.1667 6.22772 19.5929 6.14713 19.5929 6.14713C19.2398 3.23485 15.5323 3.24139 15.5323 3.24139V1L13.7667 2.30693C13.7667 2.30693 12.9016 2.02376 12.2219 1.91267V1.87129C12.1557 1.87129 12.0807 1.87564 12.0012 1.88436C11.9218 1.87564 11.8467 1.87129 11.7805 1.87129V1.91267C11.1008 2.02158 10.2357 2.30693 10.2357 2.30693L8.47019 1V3.23921C8.47019 3.23921 4.76481 3.23267 4.4095 6.14495C4.4095 6.14495 3.8357 6.22554 3.39432 5.7899C2.95294 5.35426 2.19819 4.79228 1.8495 5.13644C1.62881 5.35426 1.84288 6.3802 0.966738 7.53247C0.304669 8.40594 0.18329 10.044 0.0839793 12.1089C-0.13671 16.6832 0.0839793 18.4257 0.746048 18.4257C1.40812 18.4257 1.8495 17.5545 2.29088 17.5545C2.73226 17.5545 3.25529 17.9683 3.39432 17.5545C3.61501 16.901 2.07019 15.5941 2.51157 15.5941C2.95294 15.5941 4.05639 16.2475 4.27708 15.8119C4.49777 15.3762 4.76481 13.8515 4.4095 13.3069C4.05419 12.7624 3.17363 12.7624 4.05639 12.1089C4.93915 11.4554 5.60122 11.2376 5.82191 10.3663C6.0426 9.49505 6.46853 9.49505 6.92536 10.1485C7.38219 10.802 7.58743 11.2376 8.2495 11.6733C8.91157 12.1089 9.13226 12.5446 8.91157 12.7624C8.69088 12.9802 6.12426 12.1089 5.97198 13.3069C5.82191 14.505 6.26329 15.8119 6.92536 16.6832C7.58743 17.5545 8.69088 17.7723 8.2495 19.0792C7.80812 20.3861 6.70467 19.297 5.38053 19.9505C4.05639 20.604 4.27708 21.6931 4.27708 21.6931C4.27708 21.6931 6.0426 23 7.80812 23C9.57363 23 10.1254 21.8935 10.4012 21.0309C10.6771 20.1683 10.8978 19.6586 11.2288 19.26C11.5598 18.8614 11.3392 17.9901 10.6771 17.7723C10.015 17.5545 9.79432 16.901 10.6771 16.901H13.3254C14.2081 16.901 13.9874 17.5545 13.3254 17.7723C12.6633 17.9901 12.4426 18.8614 12.7736 19.26C13.1047 19.6586 13.3254 20.1683 13.6012 21.0309C13.8771 21.8935 14.4288 23 16.1943 23C17.9598 23 19.7254 21.6931 19.7254 21.6931C19.7254 21.6931 19.946 20.604 18.6219 19.9505C17.2978 19.297 16.1943 20.3861 15.7529 19.0792C15.3116 17.7723 16.415 17.5545 17.0771 16.6832C17.7392 15.8119 18.1805 14.505 18.0305 13.3069C17.8804 12.1089 15.3116 12.9802 15.0909 12.7624C14.8702 12.5446 15.0909 12.1089 15.7529 11.6733C16.415 11.2376 16.6203 10.802 17.0771 10.1485C17.5339 9.49505 17.9532 9.46891 18.1805 10.3663C18.4078 11.2638 19.0633 11.4554 19.946 12.1089C20.8288 12.7624 19.946 12.7624 19.5929 13.3069C19.2398 13.8515 19.5047 15.3762 19.7254 15.8119C19.946 16.2475 21.0495 15.5941 21.4909 15.5941C21.9323 15.5941 20.3874 16.901 20.6081 17.5545C20.7472 17.9683 21.2702 17.5545 21.7116 17.5545C22.1529 17.5545 22.5943 18.4257 23.2564 18.4257C23.9185 18.4257 24.1392 16.6832 23.9185 12.1089ZM10.1739 5.35644C11.1582 5.57426 11.2288 6.95307 11.2288 6.95307C9.33088 7.02495 9.18963 5.13861 10.1739 5.35644ZM12.7736 6.95307C12.7736 6.95307 12.8443 5.57426 13.8285 5.35644C14.8128 5.13861 14.6716 7.02277 12.7736 6.95307Z" fill="white"/>
</g>
<defs>
<clipPath id="clip0_5125_10">
<rect width="24" height="24" fill="white"/>
</clipPath>
</defs>
</svg>
