<svg width="24" height="24" viewBox="0 0 24 24" fill="none" xmlns="http://www.w3.org/2000/svg"><g clip-path="url(#clip0_5058_334)"><path d="M19.8492 18.6458C19.7352 19.1106 19.606 19.4711 19.4919 19.7116C19.4235 19.8478 19.3551 19.9359 19.3171 19.9759C19.3019 19.992 19.2943 20 19.2867 20H15.5008C15.4988 19.9979 15.4951 19.9951 15.4902 19.9915C15.4845 19.9873 15.4771 19.9818 15.4691 19.9749C15.4648 19.9712 15.4603 19.9671 15.4556 19.9625C15.4481 19.9551 15.4402 19.9463 15.4324 19.9359C15.364 19.8558 15.2727 19.6955 15.1815 19.4711C15.1207 19.3189 15.0599 19.1426 15.0067 18.9423C14.9306 18.6699 14.8546 18.3574 14.7938 18.0128C14.6078 17.0385 14.4702 15.7902 14.4041 14.391H9.59593C9.52987 15.7902 9.39219 17.0384 9.20624 18.0128C9.14539 18.3573 9.06938 18.6698 8.99339 18.9423C8.94014 19.1426 8.87934 19.3188 8.8185 19.4711C8.7273 19.6954 8.63606 19.8557 8.56766 19.9359C8.54542 19.9651 8.52316 19.9816 8.50984 19.9914C8.50494 19.9951 8.50125 19.9978 8.49921 19.9999H4.71335C4.70575 19.9999 4.69814 19.9919 4.68295 19.9759C4.64495 19.9359 4.5765 19.8477 4.5081 19.7115C4.39407 19.4711 4.26483 19.1105 4.15079 18.6458C3.97595 17.9487 3.83151 17.0432 3.73268 15.9935C3.62625 14.9438 3.57304 13.7579 3.57304 12.4999C3.57304 10.3445 3.74028 8.38937 4.00636 6.99513C4.06718 6.65058 4.1432 6.33808 4.21922 6.06565C4.27243 5.86534 4.33325 5.68906 4.39407 5.5368C4.4853 5.31244 4.5765 5.1522 4.64495 5.07208C4.6568 5.05646 4.66864 5.0445 4.67914 5.03523C4.68832 5.02711 4.69647 5.02108 4.70269 5.01651C4.70512 5.0147 4.70726 5.01312 4.70905 5.01171C4.71087 5.01029 4.71232 5.00904 4.71335 5.00796H8.49921C8.50681 5.00796 8.51441 5.01598 8.52966 5.03199C8.56766 5.07208 8.63606 5.16022 8.7045 5.29644C8.8185 5.52879 8.94775 5.89738 9.06179 6.36214C9.23663 7.05924 9.38107 7.9647 9.47992 9.01437C9.53088 9.51702 9.56964 10.0509 9.5962 10.609H14.4038C14.4304 10.0509 14.4691 9.51705 14.5201 9.01442C14.6189 7.96476 14.7634 7.0593 14.9382 6.36217C15.0523 5.89744 15.1815 5.52884 15.2955 5.29646C15.364 5.16025 15.4324 5.0721 15.4704 5.03204C15.478 5.00802 15.4856 5 15.4932 5H19.2791C19.2811 5.00216 19.2848 5.00491 19.2897 5.00854C19.303 5.01842 19.3253 5.03485 19.3475 5.06411C19.4159 5.14424 19.5071 5.30448 19.5984 5.52884C19.6592 5.6811 19.72 5.85738 19.7732 6.05768C19.8492 6.33012 19.9253 6.64262 19.986 6.98717C20.2521 8.3814 20.4194 10.3366 20.4194 12.492C20.4194 13.75 20.3662 14.9359 20.2597 15.9856C20.1685 17.0433 20.0241 17.9487 19.8492 18.6458Z" fill="white"/><path d="M21.1796 12.5C21.1796 11.2259 21.1264 10.024 21.02 8.95832C20.9516 8.2532 20.8679 7.61217 20.7691 7.04326H22.9585C23.5363 7.03525 24 9.48717 24 12.5C24 15.5128 23.5363 17.9567 22.9585 17.9567H20.7691C21.0276 16.5144 21.1796 14.5994 21.1796 12.5Z" fill="white"/><path d="M2.8128 12.5C2.8128 11.2259 2.86601 10.0241 2.97244 8.95832C3.04086 8.2532 3.12449 7.61217 3.22331 7.04326H1.0415C0.463731 7.04326 0 9.48717 0 12.5C0 15.5128 0.463731 17.9567 1.0415 17.9567H3.23091C2.97244 16.5144 2.8128 14.5994 2.8128 12.5Z" fill="white"/></g><defs><clipPath id="clip0_5058_334"><rect width="24" height="24" fill="white"/></clipPath></defs></svg>