<svg width="24" height="24" viewBox="0 0 24 24" fill="none" xmlns="http://www.w3.org/2000/svg"><g clip-path="url(#clip0_5042_71)"><path d="M10.22 4.72119C9.41268 3.45937 9.49817 2.64346 10.4575 1.69473C10.8374 1.31523 11.1983 0.926252 11.5878 0.565733C12.3856 -0.174279 13.4779 -0.202742 14.2472 0.565733C17.3152 3.60168 20.3641 6.64712 23.4035 9.71152C24.2298 10.5464 24.1823 11.6564 23.356 12.5008C23.0141 12.8518 22.6626 13.1934 22.3112 13.5444C21.3424 14.5121 20.573 14.5975 19.3763 13.8385C19.2338 13.9713 19.0723 14.1136 18.9298 14.256C15.8049 17.3773 12.68 20.4891 9.57415 23.62C9.2987 23.8951 9.03275 24.0089 8.64333 23.9995C7.38007 23.9805 6.11682 23.9995 4.86306 23.9805C4.62561 23.9805 4.32166 23.8571 4.1507 23.6959C2.84945 22.434 1.5672 21.1533 0.303941 19.8535C0.132974 19.6827 0.0189963 19.3886 0.0189963 19.1419C-0.00949816 17.8991 0.0189963 16.6657 0 15.4229C0 14.996 0.113978 14.7019 0.417919 14.3888C3.52382 11.3149 6.61072 8.21253 9.70712 5.12914C9.85909 4.97734 10.0491 4.8635 10.2295 4.73067L10.22 4.72119ZM12.984 4.55042C12.7655 4.77811 12.6611 4.89196 12.5566 4.99632C9.19422 8.36432 5.83187 11.7418 2.45053 15.1003C2.0706 15.4798 1.97562 15.8688 1.89963 16.3811C1.66218 18.0604 2.35554 19.1894 3.51432 20.3848C4.75858 21.6656 6.00284 22.3581 7.779 22.083C8.16842 22.0261 8.47236 21.9597 8.75731 21.6656C12.1292 18.2786 15.52 14.9011 18.9108 11.5141C19.0628 11.3623 19.2148 11.22 19.4902 10.9639C19.8892 11.4572 20.2596 11.9316 20.6395 12.4059C21.1809 11.8746 21.5988 11.4667 21.9503 11.1251C18.9203 8.09868 15.8999 5.08171 12.927 2.11217C12.5471 2.47269 12.1197 2.86167 11.6258 3.31706C12.0912 3.72502 12.5281 4.12348 13.003 4.54093L12.984 4.55042Z" fill="white"/><path d="M23.6789 14.6734C23.6789 14.9011 23.6789 15.1193 23.6789 15.347C23.6789 17.1591 23.6789 18.9712 23.6409 20.7738C23.6124 21.8648 22.9191 22.6617 21.8838 22.9559C20.915 23.231 19.8512 22.8705 19.2623 22.064C18.6449 21.2197 18.5309 20.0337 19.2148 19.2558C20.6015 17.6619 22.0927 16.1534 23.5459 14.6165C23.5934 14.6355 23.6409 14.6544 23.6884 14.6734H23.6789Z" fill="white"/><path d="M19.3953 3.19372C18.5689 3.19372 17.9895 2.62448 17.98 1.80857C17.98 0.945226 18.5499 0.366499 19.4048 0.366499C20.2311 0.366499 20.82 0.945226 20.8295 1.75165C20.8295 2.59602 20.2501 3.19372 19.3953 3.19372Z" fill="white"/><path d="M16.0424 11.7608C15.8809 11.9316 15.7575 12.0739 15.6245 12.2067C13.079 14.7493 10.5335 17.2919 7.97846 19.8345C7.39907 20.4132 6.2023 20.4132 5.61342 19.8345C5.1955 19.4171 4.80607 18.9712 4.35016 18.5917C3.88475 18.2027 3.74228 17.7568 3.74228 17.1591C3.74228 16.5804 3.91324 16.1819 4.33116 15.7834C5.62291 14.5406 6.86717 13.2598 8.14943 12.0075C8.3014 11.8557 8.53885 11.7228 8.73831 11.7134C11.1034 11.6944 13.4589 11.7039 15.8239 11.7134C15.8714 11.7134 15.9284 11.7418 16.0234 11.7703L16.0424 11.7608ZM8.54835 14.5311C8.54835 15.0244 8.95677 15.4324 9.44118 15.4419C9.92558 15.4419 10.3625 15.0434 10.3815 14.5596C10.4005 14.0662 9.95408 13.6108 9.45067 13.6203C8.95677 13.6203 8.54835 14.0378 8.54835 14.5311Z" fill="white"/><path d="M13.7438 9.8064C12.908 9.8064 12.3096 9.25613 12.3001 8.44971C12.2811 7.57688 12.851 6.98866 13.6964 6.97917C14.5512 6.97917 15.1591 7.5579 15.1496 8.39279C15.1496 9.21818 14.5702 9.79691 13.7438 9.8064Z" fill="white"/></g><defs><clipPath id="clip0_5042_71"><rect width="24" height="24" fill="white"/></clipPath></defs></svg>