<svg width="24" height="24" viewBox="0 0 24 24" fill="none" xmlns="http://www.w3.org/2000/svg"><path d="M5.09613 15.4037C3.47776 15.5802 2.5911 16.5465 2.55667 18.1515C2.53945 19.0086 2.55667 19.8573 2.55667 20.7144C2.55667 20.8825 2.55667 21.0505 2.55667 21.311C1.68723 20.748 0.903874 20.2438 0.137733 19.7229C0.0430416 19.664 0 19.4876 0 19.3615C0 16.681 0 14.0005 0 11.3115C0 11.2779 0.025825 11.2443 0.0344333 11.2191C1.84218 10.8662 2.55667 10.0007 2.56528 8.17722C2.56528 7.48818 2.38451 6.6815 2.6858 6.13531C2.96987 5.60593 3.77044 5.33703 4.3472 4.9589C4.57963 4.80765 4.81205 4.6564 5.10473 4.47153V15.4037H5.09613Z" fill="white"/><path d="M18.8694 15.3869V4.45473C19.7217 5.00932 20.5136 5.5219 21.297 6.05969C21.3917 6.12691 21.4175 6.33698 21.4175 6.47983C21.4261 7.11005 21.4175 7.73187 21.4175 8.36209C21.4347 10.0091 22.2783 10.967 23.9656 11.2023C23.9656 11.3451 23.9914 11.5048 23.9914 11.656C23.9914 14.1685 23.9914 16.6726 24 19.1851C24 19.5212 23.9139 19.7229 23.6126 19.9077C22.9067 20.3363 22.2181 20.8068 21.4261 21.3194C21.4261 20.832 21.4261 20.4203 21.4261 20.017C21.4261 19.3867 21.4347 18.7649 21.4261 18.1347C21.3917 16.5718 20.5395 15.6474 18.878 15.3953L18.8694 15.3869Z" fill="white"/><path d="M17.1306 9.5385C15.8307 8.6898 14.6169 7.89153 13.4032 7.11005C12.9297 6.80755 12.4476 6.30337 11.957 6.29497C11.5007 6.29497 11.0273 6.80755 10.571 7.10165C9.35725 7.89152 8.15208 8.6814 6.84362 9.5385C6.84362 8.63939 6.93831 7.8159 6.81779 7.02602C6.61119 5.68996 7.11908 4.88327 8.33286 4.26146C9.49498 3.66485 10.5452 2.86657 11.6298 2.13552C11.8881 1.95905 12.0689 1.95065 12.3357 2.13552C13.825 3.12706 15.3228 4.085 16.8121 5.07654C16.9584 5.17738 17.1133 5.38745 17.1133 5.55551C17.1392 6.84116 17.1306 8.13521 17.1306 9.5385Z" fill="white"/><path d="M17.1306 16.2692C16.7001 15.9835 16.3472 15.7567 15.9943 15.5298C14.7805 14.7315 13.5581 13.95 12.3529 13.135C12.0689 12.9417 11.8795 12.9585 11.604 13.135C10.0631 14.1685 8.50502 15.1769 6.84362 16.2692C6.84362 15.992 6.84362 15.7987 6.84362 15.597C6.84362 14.513 6.8264 13.4375 6.86083 12.3535C6.86083 12.1686 6.98996 11.9165 7.14491 11.8073C8.65997 10.7905 10.1836 9.79899 11.7245 8.81585C11.8537 8.73182 12.1377 8.74022 12.2669 8.81585C13.8077 9.79899 15.3314 10.7989 16.8551 11.7989C16.9756 11.8745 17.122 12.0258 17.122 12.1434C17.1392 13.4795 17.1306 14.8071 17.1306 16.2356V16.2692Z" fill="white"/><path d="M17.1306 23C15.5208 21.9496 13.9971 20.9749 12.5079 19.9665C12.1291 19.7145 11.8709 19.6892 11.4835 19.9497C10.1406 20.8657 8.77188 21.7396 7.40316 22.6303C7.24821 22.7311 7.07604 22.8235 6.84362 22.9664C6.84362 21.5631 6.84362 20.227 6.85222 18.8994C6.85222 18.7817 6.99857 18.6389 7.11908 18.5633C8.64276 17.5549 10.1578 16.5549 11.6987 15.5802C11.8364 15.4878 12.1463 15.5046 12.2927 15.597C13.8164 16.5634 15.3228 17.5633 16.8293 18.5548C16.9584 18.6389 17.1133 18.8069 17.1133 18.933C17.1306 20.2522 17.122 21.5715 17.122 23H17.1306Z" fill="white"/></svg>