<svg width="24" height="24" viewBox="0 0 24 24" fill="none" xmlns="http://www.w3.org/2000/svg"><g clip-path="url(#clip0_5042_26)"><path d="M4.35584 5.94212C4.92176 7.02251 5.83923 6.91961 6.79957 6.80815C6.91104 5.85638 7.02251 4.93033 5.93355 4.36442C7.11683 2.8896 8.24866 1.48339 9.43194 0C9.84352 0.823151 10.1693 1.62915 10.6324 2.34941C11.1383 3.12969 11.0868 3.78993 10.6324 4.57878C9.94641 5.76206 9.40622 7.02251 8.7717 8.23151C8.66024 8.44587 8.45445 8.66024 8.23151 8.7717C6.78242 9.51768 5.30761 10.2294 3.85852 10.9753C3.57556 11.1211 3.3612 11.1383 3.06967 10.9839C2.0836 10.4695 1.08039 9.98071 0 9.44051C1.45766 8.27438 2.85531 7.14255 4.35584 5.94212Z" fill="white"/><path d="M14.5595 0C15.7428 1.47481 16.866 2.88103 18.0064 4.29582C17.9378 4.38157 17.9035 4.45874 17.8521 4.48446C17.0547 4.96463 17.0975 5.73633 17.1661 6.50804C17.1747 6.62808 17.3719 6.81672 17.5005 6.83387C18.3408 6.93676 19.1468 6.88532 19.627 5.94212C21.0932 7.11683 22.4995 8.24009 23.9914 9.43194C23.6913 9.58628 23.4341 9.72347 23.1854 9.85209C22.4394 10.2294 21.6849 10.5809 20.9475 10.9753C20.6731 11.1211 20.4502 11.1383 20.1586 10.9925C18.6924 10.2379 17.209 9.51768 15.7342 8.76313C15.5456 8.66881 15.3569 8.48875 15.254 8.30011C14.4823 6.79957 13.7363 5.29046 12.9904 3.78135C12.9218 3.63558 12.8617 3.42122 12.9218 3.2926C13.4362 2.21222 13.985 1.14041 14.5509 0H14.5595Z" fill="white"/><path d="M9.44051 24C8.25723 22.5252 7.13398 21.1275 5.9507 19.6527C6.96249 19.104 6.92819 18.1951 6.80815 17.2176C5.86495 17.0547 4.94748 16.9946 4.35584 18.0493C2.8896 16.8746 1.48339 15.7428 0 14.5595C1.14041 13.985 2.22937 13.4362 3.31833 12.9046C3.4298 12.8532 3.62701 12.9132 3.75563 12.9818C5.26474 13.7278 6.77385 14.4737 8.27438 15.2454C8.46302 15.3398 8.64309 15.5284 8.74598 15.717C9.50911 17.2004 10.2465 18.6924 10.9839 20.1929C11.0611 20.3473 11.1125 20.5874 11.0439 20.7245C10.538 21.7964 9.99786 22.851 9.42336 24H9.44051Z" fill="white"/><path d="M24 14.5595C22.5509 15.717 21.1961 16.806 19.8328 17.895C19.7899 17.9293 19.7385 17.9464 19.6699 17.9807C19.6099 17.9293 19.5241 17.8864 19.4812 17.8178C18.9839 17.0204 18.2036 17.1061 17.4491 17.1661C17.3376 17.1747 17.1833 17.4062 17.1661 17.5434C17.1318 17.9464 17.0547 18.4009 17.1919 18.761C17.329 19.1125 17.7063 19.3698 18.0064 19.7042C16.866 21.119 15.7428 22.5338 14.5595 24C13.9936 22.8596 13.4448 21.7878 12.9218 20.7074C12.8703 20.5959 12.9046 20.3987 12.9646 20.2701C13.7278 18.7267 14.4995 17.1833 15.2797 15.6484C15.3569 15.5027 15.4941 15.3569 15.6399 15.2883C17.1747 14.508 18.7095 13.7363 20.2615 12.9732C20.3901 12.9132 20.5874 12.8617 20.6988 12.9218C21.7792 13.4448 22.851 13.985 24 14.5595Z" fill="white"/><path d="M17.9807 12.03C16.6431 12.5702 15.3741 13.059 14.1222 13.5906C13.9078 13.6763 13.6935 13.8907 13.5991 14.105C13.0675 15.3569 12.5702 16.6345 12.0214 17.9893C11.9185 17.7835 11.8499 17.6635 11.7899 17.5263C11.3355 16.3944 10.8896 15.2454 10.4094 14.1222C10.3151 13.8993 10.075 13.6763 9.85209 13.582C8.72883 13.1018 7.58842 12.6645 6.44802 12.2101C6.3194 12.1586 6.19936 12.0986 5.97642 12.0043C7.16827 11.5241 8.24866 11.0354 9.36334 10.6581C10.0322 10.4352 10.3923 10.0579 10.6238 9.39764C11.0096 8.28296 11.4984 7.20257 11.9871 5.97642C12.3644 6.91961 12.7931 7.71704 13.0161 8.57449C13.3505 9.88639 14.105 10.6495 15.4169 10.9839C16.2315 11.1897 17.0032 11.6013 17.7921 11.9185C17.8264 11.9271 17.8521 11.9528 17.9721 12.0386L17.9807 12.03Z" fill="white"/></g><defs><clipPath id="clip0_5042_26"><rect width="24" height="24" fill="white"/></clipPath></defs></svg>