<svg width="24" height="24" viewBox="0 0 24 24" fill="none" xmlns="http://www.w3.org/2000/svg"><path d="M11.9666 1C13.5451 2.5839 15.0894 4.09894 16.5993 5.65702C17.4144 6.50062 17.3801 7.76602 16.5736 8.61823C16.2819 8.92813 15.9559 9.20359 15.587 9.53931C16.668 10.5895 17.6718 11.5622 18.6412 12.5091C16.3591 14.7989 14.1371 17.0284 11.958 19.2149C9.78744 17.037 7.57399 14.8161 5.32623 12.5608C6.28711 11.6053 7.2823 10.6153 8.38044 9.5307C8.02869 9.2208 7.71984 8.98838 7.43673 8.70431C6.50159 7.76602 6.50159 6.49201 7.43673 5.55372C8.92951 4.04729 10.4395 2.54086 11.9751 1H11.9666ZM14.3087 10.7703C13.5022 11.5881 12.7044 12.3886 11.8722 13.2408C11.1086 12.4403 10.3365 11.6483 9.59869 10.8822C9.18689 11.2782 8.8094 11.6483 8.49197 11.9582C9.66733 13.1375 10.8513 14.3254 11.958 15.4359C13.0904 14.291 14.2658 13.1117 15.4412 11.9238C15.1323 11.6053 14.7634 11.2351 14.3087 10.7789V10.7703ZM11.9751 5.78614C12.8159 6.66418 13.588 7.46474 14.4374 8.34277C14.6948 8.05009 14.9007 7.77463 15.1409 7.54221C15.4583 7.24092 15.4583 6.9999 15.1409 6.69C14.1886 5.75171 13.2449 4.7962 12.3012 3.8493C12.1896 3.7374 12.0695 3.65132 11.9322 3.5308C11.04 4.42605 10.1907 5.28687 9.33274 6.14769C8.26033 7.22371 8.26033 7.25814 9.48716 8.22226C9.49574 8.23086 9.52148 8.22226 9.57296 8.23947C10.3279 7.46474 11.1001 6.67279 11.9751 5.77754V5.78614ZM11.9065 10.6325C12.3097 10.2366 12.6786 9.88363 12.9703 9.59956C12.6357 9.2208 12.2926 8.82483 11.9923 8.48911C11.5977 8.85065 11.2202 9.18637 10.8341 9.53931C11.2202 9.93528 11.5805 10.2968 11.9065 10.6239V10.6325Z" fill="white"/><path d="M21.215 13.1375C19.6793 11.5106 18.4696 9.7459 18.8728 7.38726C19.1388 5.82058 20.0739 4.63265 21.2493 3.72018C21.5238 4.48631 21.8069 5.24383 22.0643 6.00996C22.5619 7.49917 22.6477 8.95395 21.6439 10.4001C22.0643 10.2624 22.4161 10.1505 22.7592 10.0386C23.1282 9.91807 23.4971 9.78894 23.9518 9.6426C23.5743 10.512 23.8145 11.3212 23.9346 12.139C24.2091 13.9725 23.6257 15.4531 22.0643 16.5033C21.6868 16.753 21.2922 16.9854 20.9233 17.3469H23.9174C23.1882 18.3971 22.5619 19.3871 21.8327 20.2995C20.2713 22.2622 18.1693 23.08 15.7071 22.9939C14.7548 22.9594 13.8025 22.8045 12.6786 22.6926C12.9961 22.0814 13.1591 21.5735 13.4765 21.1948C14.6347 19.8089 15.7929 18.4229 17.0455 17.1317C18.3753 15.7544 19.808 14.489 21.2236 13.1461L21.215 13.1375Z" fill="white"/><path d="M11.2545 22.5979C8.07159 23.2866 5.20612 23.278 2.7782 21.0398C2.28918 20.5836 1.88596 20.0154 1.49131 19.4731C1.0023 18.8189 0.564757 18.1303 0.0585816 17.39H3.00126C3.01842 17.3383 3.027 17.2867 3.04416 17.235C2.76962 17.0715 2.48651 16.9079 2.22055 16.7357C1.13099 16.0471 0.204429 15.1863 0.0328439 13.8434C-0.0615277 13.0945 0.0757401 12.3111 0.0928985 11.545C0.110057 10.9338 0.0928985 10.3226 0.0928985 9.68565C0.779238 9.90946 1.51705 10.1505 2.27202 10.4001C1.24252 8.7904 1.35405 7.20649 2.0747 5.56233C2.33208 4.98558 2.46077 4.34858 2.65809 3.69436C4.09082 4.87368 5.13749 6.30263 5.12891 8.31695C5.11175 10.2882 4.01361 11.7344 2.74388 13.1203C5.63509 16.1762 9.18689 18.6295 11.2631 22.6065L11.2545 22.5979Z" fill="white"/></svg>