<svg width="24" height="24" viewBox="0 0 24 24" fill="none" xmlns="http://www.w3.org/2000/svg"><path d="M18.9846 9.16959C17.2863 10.067 15.622 10.9557 13.9492 11.8358C13.3124 12.1723 12.667 12.7418 12.0217 12.7504C11.3764 12.7504 10.731 12.1809 10.0942 11.8444C8.42139 10.9643 6.7571 10.0842 5.02487 9.16096C4.88052 9.99793 4.74466 10.7831 4.61729 11.5683C4.28613 13.596 3.97195 15.6237 3.6323 17.6428C3.60683 17.8067 3.437 18.0225 3.27567 18.0829C2.55391 18.359 1.82366 18.5919 1 18.8767C1.13586 18.1174 1.25474 17.4185 1.38211 16.7282C2.0699 12.992 2.7577 9.25588 3.47097 5.51972C3.51342 5.27813 3.70023 5.00201 3.90402 4.87258C4.59182 4.40664 5.32207 4.00973 6.01835 3.55242C6.28158 3.37985 6.46839 3.39711 6.72313 3.56105C8.34497 4.6051 9.9753 5.62327 11.5971 6.66732C11.9028 6.86577 12.1236 6.88303 12.4378 6.67595C14.0341 5.63189 15.6645 4.63099 17.2608 3.58693C17.575 3.37985 17.8043 3.39711 18.11 3.58693C18.7893 4.02699 19.5025 4.4239 20.1818 4.87258C20.3517 4.98476 20.53 5.19184 20.5639 5.3903C21.3876 9.75633 22.1858 14.1224 22.9925 18.4884C23.0094 18.5919 22.9925 18.6955 22.9925 18.8422C22.2113 18.5747 21.464 18.3417 20.7253 18.057C20.5894 18.0052 20.4366 17.7981 20.4111 17.6428C19.9696 15.0025 19.545 12.3621 19.1119 9.71319C19.0865 9.54062 19.0355 9.36805 18.9931 9.15233L18.9846 9.16959Z" fill="white"/><path d="M15.605 21.9226C14.1021 24.6492 9.98379 24.7355 8.38742 21.9226C8.0223 22.0951 7.6317 22.2504 7.27507 22.4489C6.80804 22.7078 6.39197 22.6301 6.02685 22.2677C5.2881 21.5256 4.86354 20.6455 5.05884 19.5756C5.10979 19.2995 5.38151 18.9543 5.63625 18.8422C7.65717 17.9793 9.70358 17.1596 11.7415 16.3485C11.9113 16.2795 12.1576 16.2881 12.3359 16.3572C14.3483 17.1596 16.3523 17.9707 18.3477 18.7904C18.9251 19.032 19.0865 19.3685 18.9931 20.2572C18.9081 21.0683 18.56 21.7586 17.9486 22.3022C17.6005 22.6128 17.2184 22.6905 16.7853 22.4662C16.4117 22.2763 16.0296 22.1038 15.6135 21.9139L15.605 21.9226ZM12.0472 18.7473C11.5207 18.9457 11.0112 19.0579 10.5952 19.3254C9.61866 19.9466 9.63564 21.1374 10.5782 21.8104C11.4358 22.423 12.6755 22.3971 13.4992 21.7672C14.3568 21.1115 14.3823 19.9898 13.4992 19.3771C13.0831 19.0924 12.5567 18.963 12.0472 18.7473Z" fill="white"/><path d="M7.94588 2.37894C9.27901 1.56786 10.5357 0.79129 11.8094 0.0406079C11.9283 -0.0284203 12.1576 -0.00253474 12.2764 0.0664935C13.5162 0.808547 14.7559 1.56786 16.0296 2.34442C15.9277 2.43934 15.8513 2.52562 15.7579 2.58602C14.6285 3.31082 13.4992 4.03562 12.3529 4.74316C12.2085 4.82944 11.9623 4.9071 11.8434 4.8467C10.5527 4.05287 9.27901 3.23316 7.93739 2.38757L7.94588 2.37894Z" fill="white"/><path d="M12.3274 14.5624C14.1955 13.5788 15.9277 12.6555 17.7533 11.6978C17.8892 12.5088 17.9571 13.2854 18.1524 14.0275C18.4326 15.0888 17.5835 15.6324 17.2184 16.4003C17.1929 16.4521 16.9891 16.4607 16.8957 16.4262C15.4182 15.8308 13.9407 15.2182 12.3274 14.5624Z" fill="white"/><path d="M11.699 14.5624C10.0857 15.2182 8.62518 15.8222 7.15619 16.4003C7.03731 16.4434 6.78257 16.3658 6.70615 16.2536C6.40895 15.8394 6.14572 15.3908 5.89099 14.9421C5.82305 14.8299 5.78909 14.666 5.80607 14.5452C5.95042 13.6305 6.10327 12.7159 6.27309 11.7064C8.06476 12.6555 9.82245 13.5788 11.699 14.571V14.5624Z" fill="white"/></svg>