<svg width="24" height="24" viewBox="0 0 24 24" fill="none" xmlns="http://www.w3.org/2000/svg"><g clip-path="url(#clip0_5042_91)"><path d="M10.906 16.1552C11.9914 16.3534 13.1199 16.6724 14.4207 15.9569C14.2398 15.8707 14.033 15.819 13.8952 15.681C12.5772 14.3707 11.2678 13.0517 9.96698 11.7241C9.30366 11.0517 9.25197 10.2672 9.82915 9.69828C10.3805 9.15517 11.173 9.21552 11.8191 9.86207C13.1113 11.1552 14.3862 12.4483 15.6784 13.7414C15.799 13.8621 15.9282 13.9828 16.1005 14.1379C16.4279 13.3017 16.3331 12.5 16.1177 11.75C15.6612 10.1207 15.1098 8.51724 14.6188 6.90517C14.1967 5.5 13.809 4.09483 14.033 2.59483C14.1795 1.56897 14.6188 0.706897 15.2994 0C15.9454 0.603448 16.5743 1.18966 17.2032 1.77586C16.4968 2.72414 16.8155 3.68103 16.9706 4.65517C17.1429 5.73276 17.7373 6.26724 18.7796 6.36207C19.4343 6.42241 20.0976 6.55172 20.7351 6.48276C21.2347 6.43104 21.7172 6.12931 22.1737 5.9569C22.7337 6.49138 23.3453 7.06897 24 7.68966C22.6131 9.13793 20.8643 9.55173 18.8916 9.34483C19.2706 10.4138 19.6583 11.431 19.977 12.4655C20.3733 13.7672 20.6145 15.1121 20.3044 16.4741C19.71 19.1466 17.2807 20.8966 14.5499 20.5862C13.7057 20.4914 12.8701 20.2672 12.0431 20.069C11.8966 20.0345 11.6899 19.8621 11.664 19.7241C11.397 18.5517 11.173 17.3707 10.9232 16.1638L10.906 16.1552Z" fill="white"/><path d="M8.66619 23.9914C8.04594 23.3707 7.44293 22.7672 6.82269 22.1466C7.4257 21.3793 7.21034 20.5172 7.08112 19.6207C6.90022 18.3879 6.30581 17.7328 5.02225 17.569C3.85068 17.4224 2.74803 17.2931 1.80905 18.1552C1.19742 17.5259 0.620244 16.9224 0 16.2845C1.36109 14.8448 3.11845 14.431 5.12563 14.6379C4.79828 13.7672 4.46231 12.9569 4.20388 12.1379C3.70424 10.5862 3.33381 9.00862 3.73008 7.35345C4.32448 4.88793 6.7107 3.13793 9.24336 3.38793C10.1565 3.48276 11.061 3.71552 11.9655 3.91379C12.112 3.94828 12.3187 4.12069 12.3446 4.26724C12.603 5.43966 12.827 6.62069 13.0682 7.81034C12.603 7.73276 12.0948 7.63793 11.5865 7.56897C9.20029 7.25 7.27064 9.17241 7.76167 11.5345C8.11486 13.2759 8.75233 14.9483 9.21752 16.6724C9.51902 17.8017 9.83776 18.9483 9.98421 20.1121C10.1737 21.5948 9.743 22.931 8.6748 24L8.66619 23.9914Z" fill="white"/></g><defs><clipPath id="clip0_5042_91"><rect width="24" height="24" fill="white"/></clipPath></defs></svg>