<svg width="24" height="24" viewBox="0 0 24 24" fill="none" xmlns="http://www.w3.org/2000/svg"><g clip-path="url(#clip0_5042_96)"><path d="M7.86825 17.4606C7.20581 16.845 6.6687 16.3454 6.13159 15.8369C5.60343 15.3461 5.08422 14.8554 4.5292 14.338C4.09951 15.5603 4.2696 16.5506 5.24535 17.3803C5.95255 17.9781 6.59709 18.6473 7.27743 19.2718C7.49227 19.4681 7.58179 19.6376 7.46542 19.9409C7.18791 20.6458 6.94621 21.3595 6.67765 22.1179C6.32853 21.9216 6.01521 21.7521 5.7019 21.5737C4.3054 20.7707 2.90891 19.9588 1.52137 19.1469C0.2502 18.4064 -0.269009 17.1395 0.133826 15.7298C0.58142 14.1685 1.05587 12.616 1.53032 11.0636C1.98687 9.60042 2.94472 8.5744 4.35016 7.95879C4.84252 7.74466 5.33487 7.53945 5.83618 7.32533C5.496 6.77217 5.12898 6.26362 4.85147 5.71046C4.08161 4.17589 4.35912 2.44503 5.52286 1.24949C6.74032 0.000421405 8.52174 -0.347534 10.1241 0.366221C11.637 1.03537 12.5948 2.64131 12.4785 4.30971C12.4248 5.05024 12.0756 5.81752 11.1446 7.18258C11.4759 7.36102 11.816 7.52161 12.1473 7.70897C13.0962 8.26213 13.8302 9.04726 14.3405 10.0108C14.421 10.1536 14.3226 10.3856 14.2957 10.5818C14.2957 10.5997 14.2689 10.6086 14.2599 10.6264C13.8034 11.4829 13.2394 11.7506 12.1473 11.6703C9.31846 11.4562 7.16106 14.1774 7.76978 16.9432C7.79664 17.0681 7.81454 17.193 7.86825 17.4606Z" fill="white"/><path d="M20.5799 10.5997C22.3165 11.4205 23.2654 12.8748 23.8205 14.6681C24.277 16.1313 23.8473 17.4785 22.5403 18.2726C20.9469 19.2451 19.3356 20.2086 17.7332 21.1722C17.6258 21.2347 17.5094 21.2882 17.3572 21.3774C17.1871 20.735 16.9991 20.1462 16.8827 19.5395C16.8559 19.3878 17.017 19.138 17.1603 19.0131C17.9301 18.3707 18.7268 17.764 19.4967 17.1306C20.3113 16.4525 20.5351 15.48 20.0786 14.4808C18.8611 15.4265 17.6526 16.3722 16.3367 17.3982C16.7932 15.4889 16.3277 13.9455 14.9491 12.6785C15.3699 11.7685 16.0502 11.144 16.9275 10.6533C16.2293 9.79675 15.6742 8.89564 15.5579 7.78932C15.3878 6.20122 16.8022 4.60419 18.3956 4.47036C20.7768 4.27408 22.6567 6.65623 21.484 9.07408C21.2334 9.58263 20.9021 10.0555 20.5799 10.6087V10.5997Z" fill="white"/><path d="M15.6116 20.4674C15.3072 21.6808 15.0118 22.8406 14.7164 24.0005H9.30945C9.03195 22.9209 8.77234 21.8503 8.48588 20.7886C8.40531 20.4852 8.54854 20.3692 8.7992 20.2443C9.5422 19.8875 10.2852 19.5038 11.0551 19.1202C10.321 18.3797 9.72124 17.6124 9.47954 16.631C9.20203 15.5068 9.65858 14.3737 10.6343 13.7492C11.5564 13.1603 12.8454 13.2139 13.7227 13.8741C14.6448 14.57 15.0745 15.7655 14.6269 16.8362C14.2778 17.6659 13.7227 18.4153 13.2393 19.2451C13.9465 19.602 14.7612 20.0213 15.6116 20.4585V20.4674Z" fill="white"/></g><defs><clipPath id="clip0_5042_96"><rect width="24" height="24" fill="white"/></clipPath></defs></svg>