<svg width="24" height="24" viewBox="0 0 24 24" fill="none" xmlns="http://www.w3.org/2000/svg"><path d="M10.4329 13.4811C8.66629 10.5296 6.96003 7.62937 5.20207 4.75486C4.37479 3.40315 4.52991 1.74346 5.70188 0.733962C6.89109 -0.29265 8.60597 -0.232765 9.8038 0.853734C13.4145 4.13889 17.0252 7.4155 20.6446 10.6921C21.3426 11.3252 21.6614 12.078 21.4201 12.9849C21.1702 13.9259 20.4808 14.3879 19.5329 14.5761C17.6802 14.944 15.8274 15.3632 13.9229 15.7738C14.3797 16.5352 14.8105 17.271 15.25 17.9982C15.8015 18.9136 16.3617 19.829 16.9046 20.7529C17.3958 21.5999 17.2665 22.635 16.6116 23.3194C15.9222 24.0295 14.8795 24.2092 13.9919 23.7386C10.3898 21.8308 6.78768 19.9231 3.1942 17.9982C2.9443 17.8613 2.67715 17.6388 2.57374 17.3907C2.35831 16.8946 2.62545 16.4925 3.23729 16.2615C5.46059 15.406 7.67528 14.559 9.89859 13.7035C10.0623 13.6436 10.2261 13.5666 10.4501 13.4725L10.4329 13.4811ZM13.6817 19.2215C13.6817 19.2215 13.742 19.136 13.7678 19.0932C13.1905 18.1265 12.6131 17.1512 12.0271 16.1759C10.3381 16.5352 8.69214 16.8946 7.04621 17.2453C7.04621 17.2795 7.05483 17.3138 7.06344 17.3394C9.26951 17.9639 11.4756 18.597 13.6817 19.2215ZM9.30398 7.89458C9.30398 7.89458 9.25228 7.94591 9.21781 7.96302C10.1916 9.57994 11.1567 11.1969 12.1477 12.8394C13.0095 12.5143 13.854 12.1892 14.7933 11.8385C12.9147 10.4868 11.105 9.1864 9.29537 7.88603L9.30398 7.89458Z" fill="white"/></svg>