<svg width="24" height="24" viewBox="0 0 24 24" fill="none" xmlns="http://www.w3.org/2000/svg"><path d="M16.1818 1.37339C17.6932 2.25751 19.0942 3.06438 20.4952 3.87983C21.2084 4.29185 21.9386 4.69528 22.6434 5.13305C22.7962 5.22747 22.9575 5.43348 22.966 5.59657C23.1613 9.22747 22.4905 12.6695 20.6565 15.8369C19.4932 17.8455 17.9904 19.5451 16.1308 20.9185C14.7553 21.9313 13.3798 22.9528 11.9703 24C9.78811 22.206 7.30876 20.8326 5.41528 18.7039C2.94442 15.9485 1.48398 12.7124 1.10189 9.00429C0.991509 7.87983 1.01698 6.72961 1 5.59657C1 5.46781 1.0934 5.27897 1.19529 5.21888C3.3435 3.96567 5.4917 2.72103 7.6484 1.47639C7.65689 1.47639 7.68236 1.47639 7.77576 1.50215C7.77576 2.41202 7.78425 3.34764 7.75878 4.27468C7.75878 4.37768 7.57198 4.50644 7.44462 4.58369C6.25589 5.28755 5.06716 5.96567 3.88692 6.67811C3.72559 6.77253 3.54728 7.01288 3.54728 7.17597C3.66615 11.2275 5.0247 14.7725 7.95407 17.5794C9.12582 18.6953 10.4929 19.5966 11.7835 20.5923C11.8684 20.6524 12.0637 20.6695 12.1401 20.618C14.1015 19.176 16.1478 17.8455 17.5998 15.794C19.4253 13.2103 20.3423 10.3348 20.4188 7.17597C20.4188 7.01288 20.232 6.77253 20.0791 6.67811C18.9159 5.97425 17.7441 5.29614 16.5639 4.62661C16.2752 4.46352 16.1733 4.28326 16.1818 3.95708C16.2073 3.14163 16.1818 2.32618 16.1818 1.38197V1.37339Z" fill="white"/><path d="M14.5515 12.2833C15.7148 11.7768 16.7422 11.3219 17.7866 10.867C17.9224 11.794 17.863 12.8069 17.2262 13.6824C17.0903 13.8712 16.7846 14.0343 16.5469 14.0343C15.477 14.0687 14.4072 14.0515 13.3288 14.0515C13.2269 15.1502 13.0741 16.1974 14.3817 16.824C13.7194 17.485 13.1845 18.0601 12.6071 18.5923C12.2165 18.9528 11.7665 18.9356 11.3589 18.5923C10.7646 18.0944 10.1957 17.5708 9.49093 16.9528C10.7816 16.206 10.7221 15.176 10.5948 14.0429C10.2212 14.0429 9.82208 14.0429 9.43149 14.0429C8.79467 14.0429 8.15785 14.0086 7.52953 14.0515C7.09649 14.0773 6.83327 13.9056 6.62949 13.5536C6.13701 12.6695 5.98418 11.7339 6.16249 10.8584C7.21536 11.3219 8.26824 11.7768 9.43998 12.2918C9.43998 11.9227 9.43998 11.7339 9.43998 11.5536C9.43998 8.98712 9.43999 6.42918 9.44848 3.86266C9.44848 3.58798 9.55886 3.27039 9.71169 3.04721C10.4249 2.03433 11.1721 1.04721 11.9448 0C12.0722 0.137339 12.1741 0.240343 12.2675 0.360515C12.9382 1.25322 13.609 2.14592 14.2543 3.05579C14.4157 3.27897 14.5176 3.59657 14.5261 3.87124C14.543 6.39485 14.5345 8.92704 14.5345 11.4506C14.5345 11.6481 14.5345 11.8369 14.5345 12.2661L14.5515 12.2833Z" fill="white"/></svg>