<svg width="24" height="24" viewBox="0 0 24 24" fill="none" xmlns="http://www.w3.org/2000/svg"><path d="M19.2379 11.7362C18.9782 12.7149 18.7185 13.633 18.502 14.5511C18.4674 14.6896 18.6059 14.8975 18.7185 15.0274C19.6276 16.0148 19.9825 17.1494 19.6189 18.4486C19.2466 19.7738 18.3548 20.5879 17.0215 20.9084C15.5237 21.2722 13.9479 20.5273 13.212 19.1242C12.9523 18.6276 12.505 18.31 11.87 18.1714C11.6536 18.9509 11.4371 19.7391 11.1861 20.6485C10.6406 20.0423 10.1558 19.4879 9.66226 18.9336C7.67959 20.7698 5.47182 21.2462 3.01296 20.1116C1.32466 19.332 0 17.4093 0 15.8243C1.02164 16.3872 2.02596 16.9242 3.04759 17.4872C3.28136 16.6471 3.49781 15.8589 3.73157 15.0101C4.68395 15.5384 5.57571 16.0494 6.49345 16.5258C6.70124 16.6297 7.00427 16.6644 7.22938 16.5951C8.05188 16.3526 8.85707 16.0581 9.74884 15.755C9.07352 14.9841 8.44149 14.2479 7.79215 13.5464C7.69691 13.4424 7.46314 13.4424 7.28999 13.4424C6.26835 13.4338 5.24671 13.4424 4.16447 13.4424C4.38958 12.5676 4.59737 11.7708 4.83113 10.87H1.37661C2.58007 9.25039 4.16447 8.47954 6.08653 8.63544C8.77049 8.84331 10.4328 10.3763 11.264 12.9747C11.9566 12.7495 12.6493 12.5157 13.4371 12.2558C13.212 13.122 13.0042 13.9101 12.7964 14.6896C13.8267 15.2353 14.7791 14.8109 15.0735 13.7109C15.3246 12.7755 15.5756 11.8488 15.8527 10.8354C15.4631 10.7228 15.0994 10.5929 14.7272 10.5149C14.3462 10.437 14.1471 10.2031 13.9133 9.90864C13.0302 8.80867 12.9176 7.65672 13.4458 6.37486C13.6882 5.7859 13.8267 5.14497 13.9653 4.5127C14.0432 4.15759 14.2596 3.99303 14.5194 3.78516C15.6276 2.88439 16.7704 2.81511 18.1038 3.29147C19.515 3.79382 21.0042 4.07964 22.45 4.50404C22.7098 4.58199 22.9435 4.80718 23.134 5.01505C24.121 6.14101 24.2422 7.37957 23.6102 8.72205C23.5583 8.83465 23.5236 8.96457 23.515 9.08582C23.3938 10.4889 22.6578 11.3897 21.3591 11.9094C21.0042 12.048 20.7184 12.1606 20.3462 12.022C20.0172 11.9007 19.6622 11.8401 19.2293 11.7362H19.2379ZM14.9349 17.4959C14.9349 18.2494 15.5497 18.8903 16.2856 18.8817C16.9955 18.873 17.6276 18.2407 17.6449 17.5392C17.6535 16.8116 16.9955 16.1534 16.2769 16.1534C15.5497 16.1534 14.9523 16.7683 14.9436 17.4959H14.9349ZM15.7575 8.04648C16.3375 8.19372 16.8484 8.3323 17.3765 8.46222C17.6016 7.61342 17.8007 6.82525 18.0085 6.01975C17.4284 5.87251 16.9349 5.7426 16.4068 5.60402C16.1903 6.42683 15.9826 7.19768 15.7575 8.04648ZM19.7401 6.50478C19.5237 7.3276 19.3159 8.13309 19.0994 8.94725C19.6795 9.09449 20.1817 9.2244 20.7011 9.36298C20.9089 8.60946 21.1081 7.92522 21.2639 7.23232C21.2899 7.11973 21.1687 6.88588 21.0648 6.85123C20.6492 6.70399 20.2076 6.61738 19.7401 6.49612V6.50478Z" fill="white"/></svg>