<svg width="24" height="24" viewBox="0 0 24 24" fill="none" xmlns="http://www.w3.org/2000/svg"><path d="M5.9625 7.28012C5.875 7.38339 5.81375 7.45223 5.76125 7.52107C4.9125 8.51069 4.9125 9.25935 5.76125 10.6448C6.225 11.4021 7.12625 11.7205 8.2025 11.4795C9.3225 11.23 10.2587 10.7137 10.915 9.74986C10.9938 9.62938 11.1862 9.56914 11.3438 9.52612C11.4575 9.4917 11.5975 9.52612 11.72 9.51751C12.4462 9.44867 12.9887 9.57775 13.5138 10.2318C14.24 11.1439 15.3338 11.557 16.5413 11.557C17.7138 11.557 18.23 10.7825 18.65 9.84451C19.0088 9.04422 18.8688 8.35579 18.37 7.69318C18.2738 7.5641 18.16 7.45223 18.02 7.29733C18.7638 6.78101 19.4812 6.2819 20.2075 5.78279C20.9338 5.28368 21.6513 4.78457 22.5 4.20801C22.4037 7.82226 21.9225 11.1697 18.9825 13.8288C20.1637 14.3881 21.2838 14.9303 22.4563 15.4896C21.4412 16.9009 20.1287 17.8561 18.2913 17.9766C18.09 17.9852 17.8713 17.8991 17.67 17.8217C15.92 17.0902 14.1788 16.3416 12.42 15.6359C12.175 15.5326 11.8162 15.5413 11.5712 15.6359C9.8825 16.3157 8.2025 17.0214 6.53125 17.7528C5.98875 17.9938 5.46375 18.0368 4.90375 17.8819C3.4775 17.5033 2.375 16.6944 1.5525 15.4896C2.69875 14.9475 3.8275 14.414 5.02625 13.8374C2.08625 11.1783 1.5875 7.83947 1.5 4.20801C3.0575 5.28368 4.50125 6.2733 5.9625 7.28012ZM13.8288 14.5258C13.8288 14.5775 13.8288 14.6377 13.8288 14.6893C14.3888 14.8786 14.94 15.0852 15.5 15.2401C16.1388 15.4122 16.69 15.2056 17.075 14.6721C17.4687 14.1214 17.5125 13.5276 17.18 12.8736C16.0425 13.4329 14.94 13.9751 13.8375 14.5258H13.8288ZM6.82 12.8822C6.2075 13.9837 6.93375 15.3605 8.0975 15.2659C8.78875 15.2056 9.47125 14.9131 10.1538 14.7237C10.1538 14.6549 10.1538 14.5861 10.145 14.5172C9.0425 13.9751 7.93125 13.4243 6.82875 12.8822H6.82Z" fill="white"/><path d="M18.1075 19.6632C17.845 19.8611 17.6613 19.9988 17.4862 20.1365C16.7163 20.7475 16.3313 21.5478 16.375 22.5202C16.4012 23.0107 16.1913 23.2602 15.7538 23.4324C15.3688 23.5786 15.01 23.7852 14.5813 23.9917C14.31 22.6837 14.0475 21.4187 13.785 20.1623C13.7413 20.1623 13.7062 20.1623 13.6625 20.1537C13.4962 20.9368 13.3387 21.7199 13.1725 22.503C13.155 22.589 13.1462 22.6837 13.1287 22.7697C13.0238 23.157 13.0325 23.7852 12.7962 23.8884C12.3763 24.0778 11.8075 23.9745 11.3 23.9487C11.195 23.9487 11.0463 23.7335 11.0112 23.5959C10.7575 22.4513 10.53 21.3068 10.1712 20.1537C9.90875 21.4015 9.655 22.6579 9.375 23.9917C8.815 23.7163 8.28125 23.4668 7.77375 23.1914C7.695 23.1484 7.625 22.9935 7.625 22.8902C7.66875 21.5134 7.1525 20.4291 5.805 19.689C6.96875 19.1899 8.0275 18.7424 9.0775 18.295C9.90875 17.9421 10.7312 17.5807 11.5712 17.2451C11.7725 17.1677 12.0437 17.116 12.2275 17.1935C14.1613 17.9852 16.0862 18.8113 18.0987 19.6632H18.1075Z" fill="white"/><path d="M14.065 0C13.8812 0.533531 13.6712 1.03264 13.5575 1.54896C13.3475 2.48694 13.6187 3.30445 14.3187 3.98428C14.9487 4.59525 15.5 5.26647 15.8238 6.17003C15.5788 6.17003 15.3862 6.17003 15.1937 6.17003C14.2837 6.15282 13.61 6.53146 13.2688 7.37478C13.1112 7.77063 12.875 7.93413 12.4462 7.87389C12.3063 7.84807 12.1575 7.85668 12.0087 7.87389C11.2913 7.97715 10.8188 7.79644 10.5037 7.04778C10.1975 6.31632 9.445 6.14422 8.66625 6.16143C8.47375 6.16143 8.28125 6.17864 8.08 6.18724C8.26375 3.41632 11.8075 0.542137 14.0475 0.00860535L14.065 0Z" fill="white"/><path d="M7.00375 9.53472C6.86375 9.44867 6.505 9.3454 6.4175 9.13027C6.33875 8.94095 6.4875 8.57953 6.645 8.38161C7.16125 7.75342 7.87875 7.44362 8.675 7.39199C8.9375 7.37478 9.34875 7.52107 9.45375 7.71039C9.55 7.89971 9.41875 8.30416 9.2525 8.50208C8.7275 9.13888 7.9925 9.42285 7.00375 9.52612V9.53472Z" fill="white"/><path d="M16.9175 9.52612C15.9288 9.41425 15.185 9.11306 14.66 8.44184C14.52 8.26113 14.4237 7.92552 14.4938 7.7276C14.555 7.5641 14.8875 7.39199 15.1062 7.39199C16.0775 7.4006 16.9087 7.77063 17.4688 8.57953C17.5825 8.73443 17.6262 9.08724 17.5212 9.20772C17.3637 9.39704 17.0575 9.46588 16.9175 9.53472V9.52612Z" fill="white"/></svg>