<svg width="24" height="24" viewBox="0 0 24 24" fill="none" xmlns="http://www.w3.org/2000/svg">
<g clip-path="url(#clip0_5125_15)">
<path d="M14.5969 18.1137C13.7181 17.3321 13.134 16.4006 13.5155 14.9738C13.7155 14.227 13.6392 13.4534 13.4129 12.7146C13.3418 12.4844 13.376 12.1498 13.2155 11.9169C12.9998 11.6037 12.5814 11.5154 12.3788 11.1674C12.1762 10.8194 12.363 10.4902 12.663 10.268C13.5471 9.6095 14.6496 9.30434 15.5705 8.68868C16.2389 8.24165 16.7599 7.63937 16.7125 6.78012C16.673 6.05203 16.2204 5.36676 15.5311 5.12585C14.989 4.93848 14.3996 4.96257 13.8286 5.00004C13.6707 5.01075 13.5997 5.10979 13.5602 5.25701C13.5181 5.41495 13.4787 5.58626 13.5287 5.74419C13.5734 5.88606 13.6892 5.99849 13.7155 6.14571C13.7786 6.47764 13.3602 6.9434 13.0471 6.97552C12.9261 6.98623 12.8103 6.93805 12.7051 6.87916C12.4682 6.74799 12.1604 6.65163 11.9683 6.45355C11.8157 6.36521 11.6447 6.29829 11.5262 6.17516C10.8237 5.43904 11.0132 4.43524 11.9104 3.91594C12.9524 3.31366 14.0602 2.77829 14.9627 1.99934C15.3705 1.64868 15.3021 0.923269 15.1864 0.452151C15.1679 0.377201 15.1416 0.29422 15.0758 0.251391C14.9969 0.200532 14.8917 0.2273 14.8022 0.254068C14.518 0.345079 14.2312 0.422706 13.9628 0.548516C13.3313 0.845641 12.5682 1.41045 11.842 1.09994C11.6394 1.0116 11.4736 0.861702 11.3368 0.68771C11.2105 0.529779 11.1263 0.243361 10.9789 0.120228C10.7527 -0.0671487 10.2238 -0.008259 9.98169 0.112197C9.60542 0.30225 9.26599 0.647558 8.9476 0.923269C8.5687 1.24984 8.20558 1.6005 7.8872 1.98864C7.25569 2.76491 6.73207 3.79013 6.91889 4.81534C7.10571 5.84056 7.55829 6.69981 8.87393 7.50285C9.53964 7.90973 7.60565 9.01792 7.55829 9.6443C7.48198 10.6588 8.78709 11.2531 9.27651 11.9999C9.5949 12.4871 9.81592 13.0385 9.92644 13.6113C10.0422 14.2163 9.95012 14.8186 10.0238 15.4262C10.108 16.1168 10.3238 16.7914 10.6842 17.3856C10.8605 17.6801 11.0737 17.9504 11.3105 18.1967C11.4368 18.3252 11.5684 18.4483 11.7052 18.5607C11.7973 18.6357 12.092 18.724 12.0788 18.8766C12.0762 18.9167 12.0551 18.9515 12.0341 18.9837C11.992 19.0506 11.9525 19.1175 11.9104 19.1844C11.892 19.2139 11.8736 19.246 11.8446 19.2647C11.721 19.3531 11.4999 19.2273 11.3763 19.1871C11.1973 19.1336 11.021 19.072 10.8369 19.0345C10.229 18.9114 9.51333 18.9971 8.99496 19.3611C8.85814 19.4575 8.72921 19.5779 8.65816 19.7332C8.36872 20.3622 8.92392 21.2563 9.55806 21.3767C9.99748 21.4624 10.6842 20.8681 10.5632 21.7301C10.5053 22.1396 10.4474 22.5492 10.3132 22.94C10.2448 23.1381 10.1448 23.3576 10.1659 23.5744C10.1869 23.7912 10.3895 23.8528 10.5764 23.8902C11.0789 23.9866 11.5894 24 12.0999 24C12.6077 24 12.7551 23.8019 13.0524 23.4459C13.4208 23.0069 14.0523 22.8864 14.5575 22.849C14.8732 22.8249 15.1864 22.7526 15.4811 22.6322C15.5784 22.592 15.6837 22.5385 15.7284 22.4394C15.86 22.1584 15.0706 21.615 14.9022 21.441C14.5733 21.1037 14.3496 20.7022 14.5627 20.2337C14.6706 19.9982 14.839 19.8001 14.9759 19.5806C15.1127 19.3611 15.2153 19.1014 15.1679 18.8472C15.1232 18.6089 14.9522 18.4135 14.768 18.2583C14.7101 18.2101 14.6522 18.1592 14.5943 18.1084L14.5969 18.1137Z" fill="white"/>
<path d="M7.10045 11.6787C7.01098 11.5903 6.91889 11.502 6.82679 11.4163C5.9611 10.6079 5.1191 9.81294 4.44023 8.83055C4.17973 8.45312 3.87187 8.02483 3.46666 7.7973C2.99566 7.5323 2.43783 7.77589 1.98525 7.982C1.5774 8.1667 1.16166 8.35943 0.856431 8.68868C0.374908 9.21066 0.330176 10.2064 1.04062 10.5517C1.30638 10.6802 1.60371 10.7257 1.88789 10.8087C2.17207 10.8917 2.45888 11.0175 2.63517 11.2584C3.09828 11.8901 2.65096 12.7842 2.97987 13.4668C3.38245 14.3046 4.2192 13.9593 4.90333 13.8763C5.8348 13.7639 6.02162 14.4652 6.30054 15.188C6.54262 15.8063 7.05308 16.2774 7.64249 16.5478C7.75826 16.6013 7.8793 16.6468 8.0056 16.6361C8.51081 16.596 8.81077 15.8197 8.87129 15.3968C8.98181 14.6098 8.57922 13.8817 8.25558 13.2044C7.97929 12.6236 7.55566 12.1284 7.10045 11.6813V11.6787Z" fill="white"/>
<path d="M22.7828 8.59499C22.7828 8.59499 22.7592 8.58161 22.746 8.57358C22.4355 8.39691 22.1066 8.26574 21.7856 8.11049C21.483 7.96594 21.1883 7.70629 20.8646 7.62599C20.4252 7.51891 20.02 7.79195 19.7227 8.09175C19.5227 8.29519 19.3543 8.52807 19.1806 8.75828C18.6228 9.49172 18.0071 10.177 17.3361 10.8034C16.7309 11.3682 16.0968 11.9142 15.6995 12.6611C15.1969 13.606 14.8706 15.2228 15.56 16.1623C15.8494 16.5558 16.2389 16.43 16.5362 16.1409C16.873 15.8143 17.173 15.4396 17.3835 15.0166C17.594 14.5937 17.644 14.0557 18.1308 13.8817C18.2886 13.8255 18.4649 13.8335 18.6307 13.8576C18.8938 13.8977 19.1491 13.978 19.4122 14.0102C20.1068 14.0958 20.7094 13.6675 20.7462 12.9341C20.7647 12.5433 20.6884 12.1471 20.7726 11.767C21.012 10.7097 21.9487 10.8703 22.7276 10.5464C22.9486 10.4554 23.1407 10.2974 23.2933 10.1101C23.5538 9.78885 23.5722 9.39268 23.3249 9.05005C23.1854 8.85464 22.9881 8.71277 22.7828 8.59231V8.59499Z" fill="white"/>
</g>
<defs>
<clipPath id="clip0_5125_15">
<rect width="24" height="24" fill="white"/>
</clipPath>
</defs>
</svg>
