<svg width="24" height="24" viewBox="0 0 24 24" fill="none" xmlns="http://www.w3.org/2000/svg"><g clip-path="url(#clip0_5042_36)"><path d="M9.94448 10.1673C12.4395 12.875 14.916 15.518 18.4552 16.8302C17.3371 18.6415 15.9325 19.9722 13.65 19.7874C12.8276 19.7227 12.3193 19.9814 11.8943 20.6838C11.386 21.534 10.7577 22.3195 10.1755 23.1234C9.40852 24.1677 8.05013 24.3063 7.12606 23.3914C4.94525 21.2382 2.77368 19.0666 0.620588 16.8857C-0.312725 15.9431 -0.174114 14.6031 0.90705 13.7991C1.34136 13.4757 1.76644 13.1615 2.21923 12.8658C2.51494 12.6717 2.58886 12.4869 2.48721 12.1172C1.99746 10.232 1.87733 8.33759 2.47797 6.4524C3.3004 3.85563 6.06337 2.18298 8.52141 2.77442C10.7115 3.3104 11.5893 5.53752 10.2217 7.32107C9.63953 8.07884 8.81711 8.65179 8.05013 9.25247C7.50493 9.67756 7.28315 10.1211 7.56961 10.5924C7.84683 11.0545 8.39204 11.1377 8.9742 10.7957C9.29763 10.6017 9.61181 10.3799 9.94448 10.1673ZM6.49769 17.5141V20.2217H8.34583V17.4863H11.0349V15.6381H8.29963V12.9489H6.45148V15.6843H3.76243V17.5141H6.49769Z" fill="white"/><path d="M9.98144 1.40673C11.5246 0.057518 13.2157 -0.284405 15.1008 0.223859C16.6717 0.648952 17.9747 1.55459 19.1852 2.59884C20.9317 4.12363 22.5119 5.77779 23.4359 7.94946C24.4155 10.2413 24.1475 12.339 22.4102 14.215C21.5139 15.176 20.4419 15.4256 19.2222 15.1298C18.6862 15.0005 18.1595 14.7972 17.679 14.5384C15.147 13.1615 13.1972 11.1099 11.2659 8.96599C12.2177 7.7554 12.8276 6.4524 12.5873 4.8814C12.3471 3.30116 11.4138 2.21995 9.9722 1.41597L9.98144 1.40673Z" fill="white"/></g><defs><clipPath id="clip0_5042_36"><rect width="24" height="24" fill="white"/></clipPath></defs></svg>