<svg width="24" height="24" viewBox="0 0 24 24" fill="none" xmlns="http://www.w3.org/2000/svg"><path d="M21.9969 15.6355C20.9052 17.7469 19.3666 19.3731 17.3465 20.548C17.2262 20.6161 17.1402 20.8119 17.1145 20.9652C17.0199 21.5952 16.9597 22.2252 16.8738 23C16.4784 22.37 16.1517 21.8421 15.8079 21.2802C12.7048 22.4466 9.64461 22.3274 6.61025 20.9992C6.26642 21.5526 5.93977 22.072 5.56155 22.6935C5.40683 21.9443 5.2521 21.3142 5.14895 20.6757C5.08018 20.267 4.89967 19.9946 4.56443 19.7392C1.69339 17.517 0.137535 14.6053 0 10.9698C0 10.8847 0 10.7996 0.00859591 10.7059C1.11747 11.3274 2.21774 11.9489 3.43836 12.6386C3.42117 12.2469 3.39538 12.0511 3.39538 11.8468C3.39538 11.3785 3.63607 11.0805 4.10025 10.9869C4.56443 10.9017 4.96843 11.1401 5.09737 11.5913C5.19193 11.9319 5.29508 12.281 5.31227 12.6215C5.32946 13.0898 5.56155 13.2686 5.99135 13.3197C6.82515 13.4133 7.65036 13.524 8.47556 13.6347C8.83659 13.6858 9.05149 13.5581 9.2406 13.2345C9.82512 12.2214 10.444 11.2423 11.0973 10.161C11.3552 10.5782 11.5873 10.9443 11.8108 11.3104C12.0085 11.6254 12.1976 11.9404 12.3867 12.2639C12.954 13.2005 12.954 13.209 14.0199 12.8259C14.6216 12.6045 15.1976 12.3321 15.7993 12.1022C16.1431 11.966 16.2978 11.7616 16.2806 11.387C16.2721 11.089 16.3494 10.791 16.3924 10.4335C16.8136 10.6633 17.1918 10.8677 17.5786 11.072C19.4783 9.7864 21.0084 8.18578 22.3322 6.21907C22.5471 7.01937 22.8307 7.80266 22.9769 8.61148C23.2691 10.2632 23.2175 11.9149 22.762 13.541C22.6588 13.8986 22.7448 14.0604 23.0542 14.1966C23.2347 14.2732 23.3981 14.3839 23.5614 14.4861C23.974 14.7585 24.1115 15.2268 23.9052 15.644C23.7075 16.0441 23.209 16.2144 22.7534 16.0271C22.5127 15.9249 22.2892 15.7802 22.0055 15.6269L21.9969 15.6355ZM12.103 15.1587C11.4669 15.2183 10.8996 15.2608 10.3323 15.3375C10.1947 15.3545 10.0056 15.4226 9.94547 15.5333C9.14605 16.8189 8.36382 18.1215 7.573 19.4071C9.21481 20.4969 13.2033 20.6416 14.8451 19.6796C13.9254 18.1726 13.0142 16.6656 12.103 15.1587ZM17.3551 18.4195C18.7305 17.4149 19.7276 16.2144 20.4497 14.7415C19.5901 14.2562 18.7563 13.7879 17.8709 13.2856C17.6904 15.0225 17.5271 16.6656 17.3465 18.4195H17.3551ZM13.8996 14.733C14.4669 15.661 15.0085 16.5464 15.55 17.4319L15.6789 17.3893C15.7907 16.2655 15.8938 15.1502 16.0142 13.9752C15.2749 14.2392 14.613 14.4776 13.8996 14.733ZM5.82803 15.0906C6.01714 16.0356 6.18905 16.904 6.36097 17.7639C6.40395 17.7639 6.43833 17.781 6.48131 17.7895C6.96269 16.9892 7.45265 16.1974 7.95121 15.363C7.22916 15.2694 6.58447 15.1927 5.81943 15.0906H5.82803ZM21.464 10.3228C21.421 10.3143 21.3694 10.2972 21.3264 10.2887C20.6646 10.8677 20.0027 11.4466 19.3064 12.0596C19.9167 12.4087 20.4583 12.7152 21.1287 13.0898C21.2491 12.1107 21.3608 11.2167 21.4726 10.3228H21.464ZM2.39826 14.0604C2.85384 15.2523 3.48134 16.2485 4.36672 17.0913C4.34953 16.7082 4.212 16.3421 4.212 15.9845C4.22919 14.8437 3.61888 14.2817 2.56158 14.0859C2.54439 14.0859 2.5272 14.0859 2.39826 14.0689V14.0604Z" fill="white"/><path d="M14.742 4.07356C14.1059 3.72449 13.5729 3.44353 13.0486 3.13703C12.4039 2.76241 12.3265 2.19198 12.8337 1.64709C13.5643 0.872324 13.7792 0.846783 14.699 1.41722C15.1976 1.72372 15.6961 2.03022 16.1947 2.33672C16.2205 2.35375 16.2635 2.36226 16.4354 2.43889C16.7534 2.08981 17.0887 1.68115 17.4583 1.30653C17.8709 0.889352 18.464 0.90638 18.9454 1.30653C19.3236 1.62155 19.3494 2.11536 19.0141 2.58362C18.7821 2.91567 18.5328 3.23068 18.2491 3.60529C18.7649 3.92031 19.2548 4.22681 19.7448 4.53331C20.3551 4.91644 20.4583 5.33362 20.1058 5.95513C19.8136 6.46597 19.3236 6.57665 18.7391 6.26163C18.1632 5.94662 17.5872 5.63161 16.9683 5.29105C16.4096 6.02325 15.868 6.73841 15.3265 7.44507C14.6646 8.31349 14.381 8.37309 13.4784 7.77711C12.1202 6.88315 12.0944 6.60219 13.2463 5.46984C13.7105 5.01009 14.1918 4.56737 14.7334 4.06504L14.742 4.07356Z" fill="white"/><path d="M5.53576 8.3816C5.00282 8.83284 4.50426 9.25853 4.00569 9.67572C3.44696 10.144 2.91401 10.127 2.38966 9.64166C2.01144 9.28408 2.02004 8.83284 2.44124 8.27092C2.81086 7.77711 3.18049 7.28331 3.58449 6.73841C3.21487 6.41489 2.85384 6.10839 2.50141 5.80188C1.93408 5.30808 1.90829 4.8313 2.40685 4.30343C3.10312 3.57124 3.54151 3.50313 4.10884 4.06504C4.38391 4.33749 4.616 4.6525 4.90826 4.99306C5.36385 4.39709 5.71628 3.91179 6.0859 3.44353C6.59306 2.79647 7.09162 2.76241 7.69334 3.34136C8.00279 3.63935 8.30365 3.93734 8.59591 4.23532C9.18043 4.8313 9.15464 5.29105 8.50995 5.84445C8.06296 6.22758 7.61597 6.60219 7.05724 7.08748C7.40108 7.37696 7.74491 7.63238 8.03717 7.93036C8.48416 8.3816 8.47556 8.95203 8.07156 9.39476C7.71053 9.7864 7.20337 9.77788 6.69621 9.35219C6.32659 9.04569 5.96556 8.73067 5.54436 8.3816H5.53576Z" fill="white"/></svg>