<svg width="24" height="24" viewBox="0 0 24 24" fill="none" xmlns="http://www.w3.org/2000/svg"><path d="M15.9646 1.06176C15.9646 1.60877 15.991 2.13814 15.9469 2.65868C15.9381 2.82631 15.7705 3.00277 15.6382 3.13511C14.1212 4.67028 12.5953 6.19662 11.0518 7.71413C10.796 7.96999 10.7342 8.19056 10.8313 8.52583C11.1312 9.59338 11.4222 10.6698 11.6956 11.755C11.775 12.0726 11.925 12.2402 12.2513 12.3196C13.3274 12.5843 14.4034 12.8755 15.4795 13.1754C15.8146 13.2725 16.0351 13.2284 16.2909 12.9637C17.7286 11.4991 19.1928 10.0698 20.6216 8.59641C21.0097 8.19939 21.389 7.96999 21.9535 8.04058C22.271 8.08469 22.6062 8.04058 22.9942 8.04058C22.9942 8.62288 22.9942 9.16107 22.9942 9.70808C22.9942 11.0844 23.0119 12.452 22.9854 13.8283C22.9854 14.0665 22.8619 14.3665 22.6944 14.5341C21.1685 16.0869 19.6338 17.6309 18.0726 19.1485C17.8786 19.3337 17.5434 19.4749 17.27 19.4749C15.2413 19.5014 13.2039 19.4749 11.1753 19.5014C10.9018 19.5014 10.5667 19.6425 10.3726 19.8278C9.42004 20.7366 8.49393 21.6718 7.57663 22.6158C7.32967 22.8717 7.06506 22.9422 6.72108 22.9775C5.7685 23.0922 5.08053 22.7658 4.44548 22.0423C3.49291 20.9571 2.42567 19.9778 1.39371 18.9632C1.13793 18.7161 1.06737 18.4515 1.02327 18.1074C0.908607 17.1545 1.21731 16.4575 1.9582 15.8311C2.77848 15.1341 3.51055 14.3312 4.25144 13.546C4.41902 13.3695 4.5425 13.0784 4.5425 12.8402C4.56897 10.7756 4.5425 8.70228 4.56897 6.63775C4.56897 6.39954 4.69245 6.09957 4.86003 5.93193C6.39473 4.36148 7.9559 2.80867 9.51706 1.26468C9.65819 1.12352 9.88751 1.00882 10.0727 1C11.9426 1.02647 13.8301 1.02647 15.7088 1.02647C15.7794 1.02647 15.8499 1.04411 15.9646 1.06176Z" fill="white"/></svg>