<svg width="24" height="24" viewBox="0 0 24 24" fill="none" xmlns="http://www.w3.org/2000/svg"><path d="M11.9286 0C15.179 3.19323 18.0827 6.39533 20.3017 10.2183C23.6995 16.0549 19.3742 23.0356 13.5582 23.8871C8.36618 24.65 3.85894 21.4833 2.68879 16.2855C2.20339 14.1034 2.68879 12.1077 3.74626 10.2006C5.27178 7.442 7.2567 5.05595 9.37164 2.76747C10.2124 1.86272 11.0445 0.957969 11.9286 0ZM16.4099 12.702C15.8031 15.3452 14.3383 16.8443 12.4227 16.933C11.3652 16.9862 10.3858 16.7911 9.51899 16.1524C8.40951 15.3364 7.82877 14.201 7.64675 12.6665C6.4506 13.5091 5.35846 14.2897 4.17098 15.1235C4.82106 15.7621 5.33246 16.2943 5.87853 16.7911C6.95333 17.7579 8.13215 18.5385 9.47565 19.0618C11.3566 19.7892 13.2028 19.6916 15.0144 18.8667C16.8606 18.024 18.3861 16.7467 19.8076 15.088C18.6461 14.272 17.554 13.5003 16.4099 12.702ZM12.0153 9.77483C11.4692 10.511 10.9752 11.0965 10.5765 11.7351C10.1344 12.4447 10.2991 13.2963 10.9058 13.8196C11.5559 14.3873 12.4747 14.3873 13.1248 13.8196C13.7315 13.3051 13.9049 12.4447 13.4628 11.7351C13.0641 11.0876 12.57 10.511 12.0153 9.76596V9.77483Z" fill="white"/></svg>