<svg width="24" height="24" viewBox="0 0 24 24" fill="none" xmlns="http://www.w3.org/2000/svg"><path d="M5.00329 18.7115C5.43026 17.53 4.69831 16.8573 3.46968 16.4348C2.94686 16.2537 2.4676 15.9346 1.9535 15.7018C1.63109 15.5638 1.49167 15.3913 1.50038 15.0205C1.53524 14.1926 1.50038 13.3647 1.52652 12.5455C1.52652 12.3816 1.67466 12.1401 1.82279 12.0625C5.11657 10.4068 8.41906 8.76824 11.7303 7.13834C11.8784 7.06935 12.1224 7.0866 12.2705 7.15559C15.5643 8.76824 18.8493 10.4068 22.1344 12.0194C22.4045 12.1488 22.5004 12.304 22.4917 12.5972C22.4742 13.4251 22.5091 14.253 22.4655 15.0722C22.4568 15.2706 22.2913 15.5379 22.117 15.6328C21.2282 16.1157 20.3132 16.5641 19.3983 16.9867C19.0846 17.1333 18.9801 17.3144 18.9888 17.6421C19.0062 18.5045 18.9888 19.3669 19.0062 20.2292C19.0062 20.5225 18.9103 20.6777 18.6402 20.807C16.5141 21.8505 14.3966 22.9026 12.2705 23.9375C12.1137 24.0151 11.8435 24.0151 11.6867 23.9375C9.56055 22.9026 7.43441 21.8505 5.3257 20.7812C5.16885 20.7036 5.02943 20.4448 5.012 20.2637C4.96843 19.8153 4.99457 19.3669 4.99457 18.6942L5.00329 18.7115ZM11.9481 21.1261V9.98419C9.34271 11.2691 6.7896 12.5368 4.16677 13.839C5.24727 14.3737 6.25806 14.8911 7.28628 15.3827C7.59126 15.5293 7.70453 15.7104 7.69582 16.0381C7.66968 16.9005 7.67839 17.7628 7.69582 18.6252C7.69582 18.7977 7.77424 19.0478 7.89623 19.1082C9.22072 19.7894 10.5626 20.4448 11.9481 21.1261Z" fill="white"/><path d="M18.9539 5.93101V3.3525C19.4157 3.58534 19.8166 3.77506 20.2087 3.97341C20.8535 4.29249 21.5157 4.60295 22.1431 4.9479C22.3 5.03414 22.483 5.24973 22.483 5.40496C22.5091 6.96586 22.4917 8.52677 22.483 10.0877C22.483 10.1308 22.4481 10.1825 22.4132 10.2774C22.2215 10.1912 22.0473 10.1135 21.873 10.0273C18.7099 8.4664 15.5556 6.91412 12.4012 5.33597C12.0875 5.18074 11.861 5.18074 11.556 5.33597C8.40163 6.9055 5.24727 8.4664 2.09291 10.0273C1.93607 10.1049 1.77051 10.1825 1.5091 10.3033C1.5091 9.94107 1.5091 9.64786 1.5091 9.35465C1.5091 8.06108 1.50038 6.76752 1.51781 5.47395C1.51781 5.30147 1.63109 5.04276 1.77051 4.96515C2.76387 4.43909 3.77466 3.95616 4.77673 3.46461C4.83773 3.43874 4.90744 3.43874 5.04686 3.41286V5.93101C6.19706 5.36184 7.26885 4.83579 8.32321 4.29249C8.41906 4.24075 8.47134 4.02515 8.47134 3.88717C8.48877 3.25764 8.45391 2.6281 8.49748 1.99856C8.50619 1.81746 8.66304 1.56737 8.81989 1.48114C9.76096 0.980956 10.7195 0.506647 11.6867 0.0582106C11.8523 -0.0194035 12.1137 -0.0194035 12.2792 0.0582106C13.2464 0.506647 14.2049 0.980956 15.146 1.48114C15.3029 1.56737 15.451 1.81746 15.4597 2.00719C15.5033 2.61948 15.4597 3.23176 15.4859 3.83543C15.4859 3.99928 15.5817 4.24075 15.7124 4.30974C16.7493 4.85304 17.8037 5.36184 18.9452 5.93101H18.9539Z" fill="white"/></svg>